M48
;Layer_Color=9474304
;FILE_FORMAT=2:5
INCH
;TYPE=PLATED
T1F00S00C0.02800
;TYPE=NON_PLATED
%
T01
X0125500Y0151500
X0169000Y0148500
X0196000
X0232000
X0236500Y0157500
X0252500Y0165000
X0279500Y0162000
X0215500Y0175500
X0217000Y0190000
X0179500Y0212500
X0187500Y0245500
X0201000Y0237000
X0211500Y0245500
X0223500
X0235500
X0118000Y0243000
Y0205000
X0125500Y0211500
X0151000Y0194000
X0150500Y0169000
M30
