%FSLAX25Y25*%
%MOIN*%
G70*
G01*
G75*
G04 Layer_Color=32896*
%ADD10R,0.03543X0.03150*%
%ADD11O,0.01181X0.07087*%
%ADD12O,0.07087X0.01181*%
%ADD13R,0.05906X0.05906*%
%ADD14R,0.02756X0.03543*%
%ADD15R,0.03150X0.03543*%
%ADD16R,0.04331X0.02559*%
%ADD17C,0.01000*%
%ADD18C,0.07000*%
%ADD19R,0.07000X0.07000*%
%ADD20R,0.05906X0.05906*%
%ADD21C,0.05906*%
%ADD22C,0.07284*%
%ADD23R,0.07284X0.07284*%
%ADD24C,0.05512*%
G04:AMPARAMS|DCode=25|XSize=55.12mil|YSize=55.12mil|CornerRadius=0mil|HoleSize=0mil|Usage=FLASHONLY|Rotation=0.000|XOffset=0mil|YOffset=0mil|HoleType=Round|Shape=Octagon|*
%AMOCTAGOND25*
4,1,8,0.02756,-0.01378,0.02756,0.01378,0.01378,0.02756,-0.01378,0.02756,-0.02756,0.01378,-0.02756,-0.01378,-0.01378,-0.02756,0.01378,-0.02756,0.02756,-0.01378,0.0*
%
%ADD25OCTAGOND25*%

%ADD26C,0.05000*%
%ADD27C,0.04000*%
G04:AMPARAMS|DCode=28|XSize=100mil|YSize=100mil|CornerRadius=0mil|HoleSize=0mil|Usage=FLASHONLY|Rotation=0.000|XOffset=0mil|YOffset=0mil|HoleType=Round|Shape=Relief|Width=10mil|Gap=10mil|Entries=4|*
%AMTHD28*
7,0,0,0.10000,0.08000,0.01000,45*
%
%ADD28THD28*%
%ADD29C,0.08000*%
%ADD30C,0.07543*%
G04:AMPARAMS|DCode=31|XSize=95.433mil|YSize=95.433mil|CornerRadius=0mil|HoleSize=0mil|Usage=FLASHONLY|Rotation=0.000|XOffset=0mil|YOffset=0mil|HoleType=Round|Shape=Relief|Width=10mil|Gap=10mil|Entries=4|*
%AMTHD31*
7,0,0,0.09543,0.07543,0.01000,45*
%
%ADD31THD31*%
G04:AMPARAMS|DCode=32|XSize=103.307mil|YSize=103.307mil|CornerRadius=0mil|HoleSize=0mil|Usage=FLASHONLY|Rotation=0.000|XOffset=0mil|YOffset=0mil|HoleType=Round|Shape=Relief|Width=10mil|Gap=10mil|Entries=4|*
%AMTHD32*
7,0,0,0.10331,0.08331,0.01000,45*
%
%ADD32THD32*%
%ADD33C,0.08331*%
%ADD34C,0.07150*%
G04:AMPARAMS|DCode=35|XSize=88mil|YSize=88mil|CornerRadius=0mil|HoleSize=0mil|Usage=FLASHONLY|Rotation=0.000|XOffset=0mil|YOffset=0mil|HoleType=Round|Shape=Relief|Width=10mil|Gap=10mil|Entries=4|*
%AMTHD35*
7,0,0,0.08800,0.06800,0.01000,45*
%
%ADD35THD35*%
%ADD36C,0.06800*%
%ADD37O,0.01575X0.07096*%
%ADD38R,0.01575X0.07096*%
%ADD39O,0.06496X0.02165*%
%ADD40O,0.02165X0.06496*%
%ADD41C,0.02362*%
%ADD42C,0.00984*%
%ADD43C,0.00787*%
%ADD44C,0.00961*%
%ADD45C,0.00882*%
%ADD46C,0.00870*%
%ADD47R,0.04343X0.03950*%
%ADD48O,0.01981X0.07887*%
%ADD49O,0.07887X0.01981*%
%ADD50R,0.06706X0.06706*%
%ADD51R,0.03556X0.04343*%
%ADD52R,0.03950X0.04343*%
%ADD53R,0.05131X0.03359*%
%ADD54C,0.07800*%
%ADD55R,0.07800X0.07800*%
%ADD56R,0.06706X0.06706*%
%ADD57C,0.06706*%
%ADD58C,0.08083*%
%ADD59R,0.08083X0.08083*%
%ADD60C,0.06312*%
G04:AMPARAMS|DCode=61|XSize=63.12mil|YSize=63.12mil|CornerRadius=0mil|HoleSize=0mil|Usage=FLASHONLY|Rotation=0.000|XOffset=0mil|YOffset=0mil|HoleType=Round|Shape=Octagon|*
%AMOCTAGOND61*
4,1,8,0.03156,-0.01578,0.03156,0.01578,0.01578,0.03156,-0.01578,0.03156,-0.03156,0.01578,-0.03156,-0.01578,-0.01578,-0.03156,0.01578,-0.03156,0.03156,-0.01578,0.0*
%
%ADD61OCTAGOND61*%

%ADD62C,0.05800*%
%ADD63O,0.02375X0.07896*%
%ADD64R,0.02375X0.07896*%
%ADD65O,0.07296X0.02965*%
%ADD66O,0.02965X0.07296*%
%ADD67C,0.00500*%
%ADD68C,0.00400*%
%ADD69C,0.00843*%
%ADD70C,0.00803*%
%ADD71C,0.00925*%
D17*
X136501Y251498D02*
X138501D01*
X137501D01*
Y246500D01*
X138501Y245500D01*
X139500D01*
X140500Y246500D01*
X130503Y250498D02*
X131503Y251498D01*
X133502D01*
X134502Y250498D01*
Y249499D01*
X133502Y248499D01*
X131503D01*
X130503Y247499D01*
Y246500D01*
X131503Y245500D01*
X133502D01*
X134502Y246500D01*
X128504Y251498D02*
X124505D01*
X126505D01*
Y245500D01*
X122506Y244500D02*
X118507D01*
X116508Y245500D02*
Y251498D01*
X113509D01*
X112509Y250498D01*
Y248499D01*
X113509Y247499D01*
X116508D01*
X110510Y251498D02*
Y245500D01*
Y248499D01*
X106511D01*
Y251498D01*
Y245500D01*
X206901Y229398D02*
X207901Y230398D01*
X209900D01*
X210900Y229398D01*
Y225400D01*
X209900Y224400D01*
X207901D01*
X206901Y225400D01*
X204902Y229398D02*
X203902Y230398D01*
X201903D01*
X200903Y229398D01*
Y228399D01*
X201903Y227399D01*
X202903D01*
X201903D01*
X200903Y226399D01*
Y225400D01*
X201903Y224400D01*
X203902D01*
X204902Y225400D01*
X195501Y156498D02*
X196501Y157498D01*
X198500D01*
X199500Y156498D01*
Y152500D01*
X198500Y151500D01*
X196501D01*
X195501Y152500D01*
X193502Y151500D02*
X191503D01*
X192502D01*
Y157498D01*
X193502Y156498D01*
X138500Y194998D02*
Y190000D01*
X137500Y189000D01*
X135501D01*
X134501Y190000D01*
Y194998D01*
X132502Y193998D02*
X131502Y194998D01*
X129503D01*
X128503Y193998D01*
Y192999D01*
X129503Y191999D01*
X130503D01*
X129503D01*
X128503Y190999D01*
Y190000D01*
X129503Y189000D01*
X131502D01*
X132502Y190000D01*
X194401Y225398D02*
X195401Y226398D01*
X197400D01*
X198400Y225398D01*
Y221400D01*
X197400Y220400D01*
X195401D01*
X194401Y221400D01*
X188403Y220400D02*
X192402D01*
X188403Y224399D01*
Y225398D01*
X189403Y226398D01*
X191402D01*
X192402Y225398D01*
X241501Y129498D02*
X242501Y130498D01*
X244500D01*
X245500Y129498D01*
Y125500D01*
X244500Y124500D01*
X242501D01*
X241501Y125500D01*
X236503Y124500D02*
Y130498D01*
X239502Y127499D01*
X235503D01*
X279001Y129998D02*
X280001Y130998D01*
X282000D01*
X283000Y129998D01*
Y126000D01*
X282000Y125000D01*
X280001D01*
X279001Y126000D01*
X273003Y130998D02*
X277002D01*
Y127999D01*
X275003Y128999D01*
X274003D01*
X273003Y127999D01*
Y126000D01*
X274003Y125000D01*
X276002D01*
X277002Y126000D01*
X225900Y213400D02*
Y219398D01*
X223901Y217399D01*
X221901Y219398D01*
Y213400D01*
X215903Y218398D02*
X216903Y219398D01*
X218902D01*
X219902Y218398D01*
Y214400D01*
X218902Y213400D01*
X216903D01*
X215903Y214400D01*
X213904Y219398D02*
Y214400D01*
X212904Y213400D01*
X210905D01*
X209905Y214400D01*
Y219398D01*
X260400Y246900D02*
Y252898D01*
X257401D01*
X256401Y251898D01*
Y249899D01*
X257401Y248899D01*
X260400D01*
X258401D02*
X256401Y246900D01*
X254402Y251898D02*
X253402Y252898D01*
X251403D01*
X250403Y251898D01*
Y250899D01*
X251403Y249899D01*
X252403D01*
X251403D01*
X250403Y248899D01*
Y247900D01*
X251403Y246900D01*
X253402D01*
X254402Y247900D01*
X282000Y216000D02*
X276002D01*
Y213001D01*
X277002Y212001D01*
X279001D01*
X280001Y213001D01*
Y216000D01*
Y214001D02*
X282000Y212001D01*
X276002Y206003D02*
Y210002D01*
X279001D01*
X278001Y208003D01*
Y207003D01*
X279001Y206003D01*
X281000D01*
X282000Y207003D01*
Y209002D01*
X281000Y210002D01*
X282500Y188000D02*
X276502D01*
Y185001D01*
X277502Y184001D01*
X279501D01*
X280501Y185001D01*
Y188000D01*
Y186001D02*
X282500Y184001D01*
Y182002D02*
Y180003D01*
Y181002D01*
X276502D01*
X277502Y182002D01*
X282500Y177004D02*
Y175004D01*
Y176004D01*
X276502D01*
X277502Y177004D01*
D41*
X215181Y184500D02*
G03*
X215181Y184500I-1181J0D01*
G01*
D42*
X220764Y172965D02*
G03*
X220764Y172965I-492J0D01*
G01*
D43*
X118500Y180000D02*
Y184000D01*
X194386Y177886D02*
Y201114D01*
X217614Y177886D02*
Y201114D01*
X194386D02*
X217614D01*
X194386Y177886D02*
X217614D01*
D67*
X114000Y216079D02*
Y238079D01*
X104000Y242079D02*
X112000D01*
X134500Y212079D02*
Y242079D01*
X112000Y212079D02*
X134500D01*
X112000Y242079D02*
X134500D01*
X114000Y238079D02*
X132000D01*
Y242079D01*
Y212079D02*
Y216079D01*
X114000D02*
X132000D01*
X104000Y238079D02*
X112000D01*
X104000D02*
Y242079D01*
Y216079D02*
X112000D01*
X104000Y212079D02*
Y216079D01*
Y212079D02*
X112000D01*
X116000Y216079D02*
Y238079D01*
X112000D02*
Y242079D01*
Y212079D02*
Y216079D01*
D68*
X116000Y231079D02*
X130500D01*
X131500Y232079D01*
X130500Y233079D02*
X131500Y232079D01*
X116000Y233079D02*
X130500D01*
X116000Y221079D02*
X130500D01*
X131500Y222079D01*
X130500Y223079D02*
X131500Y222079D01*
X116000Y223079D02*
X130500D01*
D69*
X261500Y221500D02*
Y225924D01*
X259288D01*
X258551Y225186D01*
Y223712D01*
X259288Y222975D01*
X261500D01*
X260025D02*
X258551Y221500D01*
X257076D02*
X255602D01*
X256339D01*
Y225924D01*
X257076Y225186D01*
D70*
X260500Y233500D02*
Y237924D01*
X258288D01*
X257551Y237187D01*
Y235712D01*
X258288Y234975D01*
X260500D01*
X259025D02*
X257551Y233500D01*
X253127D02*
X256076D01*
X253127Y236449D01*
Y237187D01*
X253864Y237924D01*
X255339D01*
X256076Y237187D01*
D71*
X284500Y229000D02*
Y234211D01*
X281894D01*
X281026Y233342D01*
Y231606D01*
X281894Y230737D01*
X284500D01*
X282763D02*
X281026Y229000D01*
X276684D02*
Y234211D01*
X279289Y231606D01*
X275815D01*
M02*
