%FSLAX25Y25*%
%MOIN*%
G70*
G01*
G75*
G04 Layer_Color=16711935*
%ADD10R,0.03543X0.03150*%
%ADD11O,0.01181X0.07087*%
%ADD12O,0.07087X0.01181*%
%ADD13R,0.05906X0.05906*%
%ADD14R,0.02756X0.03543*%
%ADD15R,0.03150X0.03543*%
%ADD16R,0.04331X0.02559*%
%ADD17C,0.01000*%
%ADD18C,0.07000*%
%ADD19R,0.07000X0.07000*%
%ADD20R,0.05906X0.05906*%
%ADD21C,0.05906*%
%ADD22C,0.07284*%
%ADD23R,0.07284X0.07284*%
%ADD24C,0.05512*%
G04:AMPARAMS|DCode=25|XSize=55.12mil|YSize=55.12mil|CornerRadius=0mil|HoleSize=0mil|Usage=FLASHONLY|Rotation=0.000|XOffset=0mil|YOffset=0mil|HoleType=Round|Shape=Octagon|*
%AMOCTAGOND25*
4,1,8,0.02756,-0.01378,0.02756,0.01378,0.01378,0.02756,-0.01378,0.02756,-0.02756,0.01378,-0.02756,-0.01378,-0.01378,-0.02756,0.01378,-0.02756,0.02756,-0.01378,0.0*
%
%ADD25OCTAGOND25*%

%ADD26C,0.05000*%
%ADD27C,0.04000*%
G04:AMPARAMS|DCode=28|XSize=100mil|YSize=100mil|CornerRadius=0mil|HoleSize=0mil|Usage=FLASHONLY|Rotation=0.000|XOffset=0mil|YOffset=0mil|HoleType=Round|Shape=Relief|Width=10mil|Gap=10mil|Entries=4|*
%AMTHD28*
7,0,0,0.10000,0.08000,0.01000,45*
%
%ADD28THD28*%
%ADD29C,0.08000*%
%ADD30C,0.07543*%
G04:AMPARAMS|DCode=31|XSize=95.433mil|YSize=95.433mil|CornerRadius=0mil|HoleSize=0mil|Usage=FLASHONLY|Rotation=0.000|XOffset=0mil|YOffset=0mil|HoleType=Round|Shape=Relief|Width=10mil|Gap=10mil|Entries=4|*
%AMTHD31*
7,0,0,0.09543,0.07543,0.01000,45*
%
%ADD31THD31*%
G04:AMPARAMS|DCode=32|XSize=103.307mil|YSize=103.307mil|CornerRadius=0mil|HoleSize=0mil|Usage=FLASHONLY|Rotation=0.000|XOffset=0mil|YOffset=0mil|HoleType=Round|Shape=Relief|Width=10mil|Gap=10mil|Entries=4|*
%AMTHD32*
7,0,0,0.10331,0.08331,0.01000,45*
%
%ADD32THD32*%
%ADD33C,0.08331*%
%ADD34C,0.07150*%
G04:AMPARAMS|DCode=35|XSize=88mil|YSize=88mil|CornerRadius=0mil|HoleSize=0mil|Usage=FLASHONLY|Rotation=0.000|XOffset=0mil|YOffset=0mil|HoleType=Round|Shape=Relief|Width=10mil|Gap=10mil|Entries=4|*
%AMTHD35*
7,0,0,0.08800,0.06800,0.01000,45*
%
%ADD35THD35*%
%ADD36C,0.06800*%
%ADD37O,0.01575X0.07096*%
%ADD38R,0.01575X0.07096*%
%ADD39O,0.06496X0.02165*%
%ADD40O,0.02165X0.06496*%
%ADD41C,0.02362*%
%ADD42C,0.00984*%
%ADD43C,0.00787*%
%ADD44C,0.00961*%
%ADD45C,0.00882*%
%ADD46C,0.00870*%
%ADD47R,0.04343X0.03950*%
%ADD48O,0.01981X0.07887*%
%ADD49O,0.07887X0.01981*%
%ADD50R,0.06706X0.06706*%
%ADD51R,0.03556X0.04343*%
%ADD52R,0.03950X0.04343*%
%ADD53R,0.05131X0.03359*%
%ADD54C,0.07800*%
%ADD55R,0.07800X0.07800*%
%ADD56R,0.06706X0.06706*%
%ADD57C,0.06706*%
%ADD58C,0.08083*%
%ADD59R,0.08083X0.08083*%
%ADD60C,0.06312*%
G04:AMPARAMS|DCode=61|XSize=63.12mil|YSize=63.12mil|CornerRadius=0mil|HoleSize=0mil|Usage=FLASHONLY|Rotation=0.000|XOffset=0mil|YOffset=0mil|HoleType=Round|Shape=Octagon|*
%AMOCTAGOND61*
4,1,8,0.03156,-0.01578,0.03156,0.01578,0.01578,0.03156,-0.01578,0.03156,-0.03156,0.01578,-0.03156,-0.01578,-0.01578,-0.03156,0.01578,-0.03156,0.03156,-0.01578,0.0*
%
%ADD61OCTAGOND61*%

%ADD62C,0.05800*%
%ADD63O,0.02375X0.07896*%
%ADD64R,0.02375X0.07896*%
%ADD65O,0.07296X0.02965*%
%ADD66O,0.02965X0.07296*%
%ADD67C,0.00500*%
%ADD68C,0.00400*%
%ADD69C,0.00843*%
%ADD70C,0.00803*%
%ADD71C,0.00925*%
%ADD72C,0.00394*%
D72*
X192327Y206142D02*
G03*
X192327Y206142I-1969J0D01*
G01*
X218205Y179264D02*
G03*
X218205Y179264I-1969J0D01*
G01*
X206370Y212555D02*
Y219445D01*
X202630Y212555D02*
Y219445D01*
Y212555D02*
X206370D01*
X202630Y219445D02*
X206370D01*
X207055Y163630D02*
X213945D01*
X207055Y167370D02*
X213945D01*
X207055Y163630D02*
Y167370D01*
X213945Y163630D02*
Y167370D01*
X253055Y215130D02*
X259945D01*
X253055Y218870D02*
X259945D01*
X253055Y215130D02*
Y218870D01*
X259945Y215130D02*
Y218870D01*
X253055Y228130D02*
X259945D01*
X253055Y231870D02*
X259945D01*
X253055Y228130D02*
Y231870D01*
X259945Y228130D02*
Y231870D01*
X284154Y223130D02*
X290846D01*
X284154Y226870D02*
X290846D01*
X284154Y223130D02*
Y226870D01*
X290846Y223130D02*
Y226870D01*
X125630Y236555D02*
Y243445D01*
X129370Y236555D02*
Y243445D01*
X125630Y236555D02*
X129370D01*
X125630Y243445D02*
X129370D01*
X119870Y211055D02*
Y217945D01*
X116130Y211055D02*
Y217945D01*
X119870D01*
X116130Y211055D02*
X119870D01*
X186815Y170315D02*
X226185D01*
X186815Y209685D02*
X226185D01*
Y170315D02*
Y209685D01*
X186815Y170315D02*
Y209685D01*
X132153Y157130D02*
X138847D01*
X132153Y160870D02*
X138847D01*
Y157130D02*
Y160870D01*
X132153Y157130D02*
Y160870D01*
Y174630D02*
X138847D01*
X132153Y178370D02*
X138847D01*
Y174630D02*
Y178370D01*
X132153Y174630D02*
Y178370D01*
Y202130D02*
X138847D01*
X132153Y205870D02*
X138847D01*
Y202130D02*
Y205870D01*
X132153Y202130D02*
Y205870D01*
X132055Y149630D02*
X138945D01*
X132055Y153370D02*
X138945D01*
Y149630D02*
Y153370D01*
X132055Y149630D02*
Y153370D01*
X137555Y170870D02*
X144445D01*
X137555Y167130D02*
X144445D01*
X137555D02*
Y170870D01*
X144445Y167130D02*
Y170870D01*
X132153Y184630D02*
X138847D01*
X132153Y188370D02*
X138847D01*
Y184630D02*
Y188370D01*
X132153Y184630D02*
Y188370D01*
X138055Y195870D02*
X144945D01*
X138055Y192130D02*
X144945D01*
X138055D02*
Y195870D01*
X144945Y192130D02*
Y195870D01*
X132055Y209630D02*
X138945D01*
X132055Y213370D02*
X138945D01*
Y209630D02*
Y213370D01*
X132055Y209630D02*
Y213370D01*
X224870Y147555D02*
Y154445D01*
X221130Y147555D02*
Y154445D01*
X224870D01*
X221130Y147555D02*
X224870D01*
X205630Y223555D02*
Y230445D01*
X209370Y223555D02*
Y230445D01*
X205630Y223555D02*
X209370D01*
X205630Y230445D02*
X209370D01*
X215370Y147555D02*
Y154445D01*
X211630Y147555D02*
Y154445D01*
X215370D01*
X211630Y147555D02*
X215370D01*
X197630Y223555D02*
Y230445D01*
X201370Y223555D02*
Y230445D01*
X197630Y223555D02*
X201370D01*
X197630Y230445D02*
X201370D01*
X206370Y147555D02*
Y154445D01*
X202630Y147555D02*
Y154445D01*
X206370D01*
X202630Y147555D02*
X206370D01*
X154555Y205870D02*
X161445D01*
X154555Y202130D02*
X161445D01*
X154555D02*
Y205870D01*
X161445Y202130D02*
Y205870D01*
X154555Y215870D02*
X161445D01*
X154555Y212130D02*
X161445D01*
X154555D02*
Y215870D01*
X161445Y212130D02*
Y215870D01*
X186630Y146055D02*
Y152945D01*
X190370Y146055D02*
Y152945D01*
X186630Y146055D02*
X190370D01*
X186630Y152945D02*
X190370D01*
X177130Y146055D02*
Y152945D01*
X180870Y146055D02*
Y152945D01*
X177130Y146055D02*
X180870D01*
X177130Y152945D02*
X180870D01*
X238370Y164555D02*
Y171445D01*
X234630Y164555D02*
Y171445D01*
X238370D01*
X234630Y164555D02*
X238370D01*
X244870D02*
Y171445D01*
X241130Y164555D02*
Y171445D01*
X244870D01*
X241130Y164555D02*
X244870D01*
X192220Y175721D02*
Y203279D01*
X219779Y175721D02*
Y203279D01*
X192220D02*
X219779D01*
X192220Y175721D02*
X219779D01*
X191055Y213130D02*
X197945D01*
X191055Y216870D02*
X197945D01*
X191055Y213130D02*
Y216870D01*
X197945Y213130D02*
Y216870D01*
X253055Y239630D02*
X259945D01*
X253055Y243370D02*
X259945D01*
X253055Y239630D02*
Y243370D01*
X259945Y239630D02*
Y243370D01*
X276055Y193870D02*
X282945D01*
X276055Y190130D02*
X282945D01*
Y193870D01*
X276055Y190130D02*
Y193870D01*
Y203870D02*
X282945D01*
X276055Y200130D02*
X282945D01*
Y203870D01*
X276055Y200130D02*
Y203870D01*
X118957Y220398D02*
Y232602D01*
X126043Y220398D02*
Y232602D01*
X118957D02*
X126043D01*
X118957Y220398D02*
X126043D01*
X267630Y123055D02*
Y129945D01*
X271370Y123055D02*
Y129945D01*
X267630D02*
X271370D01*
X267630Y123055D02*
X271370D01*
X248130Y122799D02*
Y129689D01*
X251870Y122799D02*
Y129689D01*
X248130D02*
X251870D01*
X248130Y122799D02*
X251870D01*
M02*
