%FSLAX25Y25*%
%MOIN*%
G70*
G01*
G75*
G04 Layer_Physical_Order=4*
G04 Layer_Color=16711680*
%ADD10R,0.04331X0.02559*%
%ADD11R,0.03543X0.03150*%
%ADD12R,0.03150X0.03543*%
%ADD13R,0.02756X0.03543*%
%ADD14R,0.05906X0.05906*%
%ADD15O,0.07087X0.01181*%
%ADD16O,0.01181X0.07087*%
%ADD17C,0.01000*%
G04:AMPARAMS|DCode=18|XSize=55.12mil|YSize=55.12mil|CornerRadius=0mil|HoleSize=0mil|Usage=FLASHONLY|Rotation=0.000|XOffset=0mil|YOffset=0mil|HoleType=Round|Shape=Octagon|*
%AMOCTAGOND18*
4,1,8,0.02756,-0.01378,0.02756,0.01378,0.01378,0.02756,-0.01378,0.02756,-0.02756,0.01378,-0.02756,-0.01378,-0.01378,-0.02756,0.01378,-0.02756,0.02756,-0.01378,0.0*
%
%ADD18OCTAGOND18*%

%ADD19C,0.05512*%
%ADD20R,0.05906X0.05906*%
%ADD21C,0.05906*%
%ADD22R,0.07284X0.07284*%
%ADD23C,0.07284*%
%ADD24R,0.07000X0.07000*%
%ADD25C,0.07000*%
%ADD26C,0.02677*%
%ADD27C,0.02402*%
%ADD28C,0.02441*%
%ADD29C,0.02559*%
%ADD30C,0.05000*%
%ADD31C,0.02480*%
%ADD32C,0.02713*%
%ADD33C,0.02953*%
%ADD34C,0.02500*%
%ADD35C,0.04000*%
%ADD36C,0.07150*%
G04:AMPARAMS|DCode=37|XSize=95.433mil|YSize=95.433mil|CornerRadius=0mil|HoleSize=0mil|Usage=FLASHONLY|Rotation=0.000|XOffset=0mil|YOffset=0mil|HoleType=Round|Shape=Relief|Width=10mil|Gap=10mil|Entries=4|*
%AMTHD37*
7,0,0,0.09543,0.07543,0.01000,45*
%
%ADD37THD37*%
%ADD38C,0.07543*%
%ADD39C,0.08331*%
G04:AMPARAMS|DCode=40|XSize=103.307mil|YSize=103.307mil|CornerRadius=0mil|HoleSize=0mil|Usage=FLASHONLY|Rotation=0.000|XOffset=0mil|YOffset=0mil|HoleType=Round|Shape=Relief|Width=10mil|Gap=10mil|Entries=4|*
%AMTHD40*
7,0,0,0.10331,0.08331,0.01000,45*
%
%ADD40THD40*%
%ADD41C,0.08000*%
G04:AMPARAMS|DCode=42|XSize=100mil|YSize=100mil|CornerRadius=0mil|HoleSize=0mil|Usage=FLASHONLY|Rotation=0.000|XOffset=0mil|YOffset=0mil|HoleType=Round|Shape=Relief|Width=10mil|Gap=10mil|Entries=4|*
%AMTHD42*
7,0,0,0.10000,0.08000,0.01000,45*
%
%ADD42THD42*%
G04:AMPARAMS|DCode=43|XSize=73.819mil|YSize=73.819mil|CornerRadius=0mil|HoleSize=0mil|Usage=FLASHONLY|Rotation=0.000|XOffset=0mil|YOffset=0mil|HoleType=Round|Shape=Relief|Width=10mil|Gap=10mil|Entries=4|*
%AMTHD43*
7,0,0,0.07382,0.05382,0.01000,45*
%
%ADD43THD43*%
%ADD44C,0.05382*%
%ADD45C,0.05378*%
%ADD46C,0.05221*%
G04:AMPARAMS|DCode=47|XSize=74.961mil|YSize=74.961mil|CornerRadius=0mil|HoleSize=0mil|Usage=FLASHONLY|Rotation=0.000|XOffset=0mil|YOffset=0mil|HoleType=Round|Shape=Relief|Width=10mil|Gap=10mil|Entries=4|*
%AMTHD47*
7,0,0,0.07496,0.05496,0.01000,45*
%
%ADD47THD47*%
G04:AMPARAMS|DCode=48|XSize=73.779mil|YSize=73.779mil|CornerRadius=0mil|HoleSize=0mil|Usage=FLASHONLY|Rotation=0.000|XOffset=0mil|YOffset=0mil|HoleType=Round|Shape=Relief|Width=10mil|Gap=10mil|Entries=4|*
%AMTHD48*
7,0,0,0.07378,0.05378,0.01000,45*
%
%ADD48THD48*%
G04:AMPARAMS|DCode=49|XSize=75mil|YSize=75mil|CornerRadius=0mil|HoleSize=0mil|Usage=FLASHONLY|Rotation=0.000|XOffset=0mil|YOffset=0mil|HoleType=Round|Shape=Relief|Width=10mil|Gap=10mil|Entries=4|*
%AMTHD49*
7,0,0,0.07500,0.05500,0.01000,45*
%
%ADD49THD49*%
G04:AMPARAMS|DCode=50|XSize=88mil|YSize=88mil|CornerRadius=0mil|HoleSize=0mil|Usage=FLASHONLY|Rotation=0.000|XOffset=0mil|YOffset=0mil|HoleType=Round|Shape=Relief|Width=10mil|Gap=10mil|Entries=4|*
%AMTHD50*
7,0,0,0.08800,0.06800,0.01000,45*
%
%ADD50THD50*%
%ADD51C,0.06800*%
G04:AMPARAMS|DCode=52|XSize=72.205mil|YSize=72.205mil|CornerRadius=0mil|HoleSize=0mil|Usage=FLASHONLY|Rotation=0.000|XOffset=0mil|YOffset=0mil|HoleType=Round|Shape=Relief|Width=10mil|Gap=10mil|Entries=4|*
%AMTHD52*
7,0,0,0.07220,0.05221,0.01000,45*
%
%ADD52THD52*%
%ADD53C,0.05496*%
%ADD54C,0.05500*%
%ADD55R,0.01575X0.07087*%
%ADD56O,0.01575X0.07087*%
%ADD57O,0.02165X0.06496*%
%ADD58O,0.06496X0.02165*%
D11*
X250000Y123488D02*
D03*
Y129000D02*
D03*
X269500Y123744D02*
D03*
Y129256D02*
D03*
X204500Y218756D02*
D03*
Y213244D02*
D03*
D12*
X276744Y202000D02*
D03*
X282256D02*
D03*
X276744Y192000D02*
D03*
X282256D02*
D03*
X259256Y241500D02*
D03*
X253744D02*
D03*
X197256Y215000D02*
D03*
X191744D02*
D03*
X259256Y230000D02*
D03*
X253744D02*
D03*
X259256Y217000D02*
D03*
X253744D02*
D03*
X213256Y165500D02*
D03*
X207744D02*
D03*
D13*
X290453Y225000D02*
D03*
X284547D02*
D03*
D17*
X207500Y200000D02*
Y205961D01*
X207575Y206035D01*
X213874D02*
Y225874D01*
X191776Y194224D02*
X198500Y187500D01*
Y186500D02*
Y187500D01*
X211221Y196780D02*
X221941D01*
X211000Y197000D02*
X211221Y196780D01*
X202157Y200000D02*
X206000Y196157D01*
X215500Y168500D02*
X218000Y166000D01*
X230500D01*
X262744Y123744D02*
X269500D01*
X216256Y162500D02*
X225500D01*
X213500Y165256D02*
X216256Y162500D01*
X217799Y154200D02*
Y155299D01*
X207744Y165355D02*
X217799Y155299D01*
X198126Y168626D02*
X221252Y145500D01*
X198126Y168626D02*
Y172965D01*
X221252Y145500D02*
X243000D01*
X182500Y229000D02*
X186500D01*
X189000Y226500D01*
X120000Y209500D02*
X125000Y204500D01*
X109500Y209500D02*
X120000D01*
X107000Y207000D02*
X109500Y209500D01*
X107000Y203500D02*
Y207000D01*
X125000Y203500D02*
Y204500D01*
X284547Y225000D02*
X284547Y225000D01*
X278500Y225000D02*
X284547D01*
X290453Y212047D02*
X290500Y212000D01*
X290453Y212047D02*
Y225000D01*
X289000Y232000D02*
Y240000D01*
Y232000D02*
X290453Y230547D01*
Y225000D02*
Y230547D01*
X204425Y172965D02*
Y179075D01*
X202000Y187843D02*
X209843Y180000D01*
X206000Y189500D02*
Y196157D01*
X209843Y180000D02*
X210500D01*
X210724Y169776D02*
X212000Y168500D01*
X215500D01*
X207744Y165500D02*
Y172795D01*
X194976Y167524D02*
Y172965D01*
X263606Y148000D02*
X269606Y142000D01*
X245500Y148000D02*
X263606D01*
X243000Y145500D02*
X245500Y148000D01*
X194976Y167524D02*
X220500Y142000D01*
X250394D01*
X269500Y129256D02*
Y141894D01*
X250000Y129000D02*
Y141606D01*
Y123488D02*
X256488D01*
X222661Y181500D02*
X236000D01*
X237000Y180500D01*
X244500D01*
X282256Y202000D02*
X290500D01*
X268000D02*
X276744D01*
X222535Y184776D02*
X252276D01*
X259500Y192000D01*
X268000D01*
X268000Y192000D02*
X276744D01*
X282256D02*
X282256Y192000D01*
X290500D01*
X194976Y202024D02*
Y206035D01*
Y202024D02*
X196000Y201000D01*
X201000D01*
X202000Y200000D01*
X202157D01*
X189465Y200524D02*
X190323Y199665D01*
X193585D01*
X197250Y196000D01*
X200500D01*
X189465Y197374D02*
X193126D01*
X202000Y188500D01*
Y187843D02*
Y188500D01*
X189465Y194224D02*
X191776D01*
X125000Y203500D02*
X127000Y201500D01*
X121000Y169500D02*
Y177500D01*
X104500Y192000D02*
Y201000D01*
X107000Y203500D01*
X104500Y192000D02*
X110000Y186500D01*
X107500Y159500D02*
X117000D01*
X105000Y162000D02*
X107500Y159500D01*
X105000Y162000D02*
Y169500D01*
X112000Y176500D01*
Y196500D02*
X117000D01*
X110000Y186500D02*
X112000D01*
X259256Y241500D02*
X267500D01*
X268500Y239244D02*
Y239500D01*
X259256Y230000D02*
X268500Y239244D01*
X269000Y239744D01*
X259256Y217000D02*
X265500D01*
X268500Y220000D01*
Y239244D01*
X236500Y202000D02*
X242000Y207500D01*
X251000D01*
X253744Y210244D01*
Y217000D01*
X231000Y220000D02*
X249000D01*
X253744Y224744D01*
Y230000D01*
X231000Y234500D02*
X246744D01*
X225500Y222000D02*
X231000Y227500D01*
X225500Y218000D02*
Y222000D01*
X236500Y208000D02*
Y212000D01*
X229000Y200500D02*
X236500Y208000D01*
X222559Y200500D02*
X229000D01*
X222535Y200524D02*
X222559Y200500D01*
X244500Y189500D02*
X252000D01*
X264500Y202000D01*
X268000D01*
X244500D02*
X259000D01*
X264500Y207500D01*
X272500D01*
X275500Y210500D01*
Y217000D01*
X272000Y220500D02*
X275500Y217000D01*
X272000Y220500D02*
Y232500D01*
X277000Y237500D01*
X240500Y240000D02*
X245642Y245142D01*
X228000Y240000D02*
X240500D01*
X213874Y225874D02*
X228000Y240000D01*
X246744Y234500D02*
X253744Y241500D01*
X245642Y245142D02*
X273358D01*
X277000Y241500D01*
Y237500D02*
Y241500D01*
X204500Y206110D02*
Y213244D01*
X204425Y206035D02*
X204500Y206110D01*
X185500Y215000D02*
X191744D01*
X198126Y206035D02*
Y208874D01*
X195500Y211500D02*
X198126Y208874D01*
X189000Y211500D02*
X195500D01*
X185500Y215000D02*
X189000Y211500D01*
X197256Y215000D02*
Y218244D01*
X189000Y226500D02*
X197256Y218244D01*
X204500Y218756D02*
Y219000D01*
X197000Y226500D02*
X204500Y219000D01*
X189000Y226500D02*
X197000D01*
X231000Y189500D02*
X236500D01*
X229425Y187925D02*
X231000Y189500D01*
X222535Y187925D02*
X229425D01*
X112000Y166500D02*
Y168287D01*
X118000Y166500D02*
X121000Y169500D01*
X112000Y166500D02*
X118000D01*
X222488Y211500D02*
X231000D01*
X228000Y215500D02*
X233000D01*
X217024Y206035D02*
X222488Y211500D01*
X233000Y215500D02*
X236500Y212000D01*
X225500Y218000D02*
X228000Y215500D01*
X117000Y159500D02*
X125000Y167500D01*
Y177500D01*
X127000Y194843D02*
Y201500D01*
X123000Y188000D02*
Y197000D01*
X125000Y192843D02*
X127000Y194843D01*
X125000Y188000D02*
Y192843D01*
X117000Y196500D02*
X121000Y192500D01*
Y188000D02*
Y192500D01*
D18*
X250394Y142000D02*
D03*
D19*
X269606D02*
D03*
D20*
X290500Y162000D02*
D03*
X268000D02*
D03*
X112000Y166500D02*
D03*
D21*
X290500Y172000D02*
D03*
Y182000D02*
D03*
Y192000D02*
D03*
Y202000D02*
D03*
Y212000D02*
D03*
X268000Y172000D02*
D03*
Y182000D02*
D03*
Y192000D02*
D03*
Y202000D02*
D03*
Y212000D02*
D03*
X112000Y196500D02*
D03*
Y186500D02*
D03*
Y176500D02*
D03*
D22*
X289000Y240000D02*
D03*
D23*
X269000D02*
D03*
D24*
X108000Y222079D02*
D03*
D25*
Y231921D02*
D03*
D26*
X207500Y200000D02*
D03*
X185500Y215000D02*
D03*
X182500Y210500D02*
D03*
X197000Y181500D02*
D03*
X198500Y186500D02*
D03*
X211000Y197000D02*
D03*
X215500Y191000D02*
D03*
X229000Y170500D02*
D03*
X262500Y123500D02*
D03*
X256488Y123488D02*
D03*
X225500Y162500D02*
D03*
X187500Y244000D02*
D03*
X203500Y180000D02*
D03*
X278500Y225000D02*
D03*
X206000Y189500D02*
D03*
X210500Y180000D02*
D03*
X200500Y196000D02*
D03*
X232000Y148500D02*
D03*
X193500Y245500D02*
D03*
X205500D02*
D03*
X211500D02*
D03*
X223500D02*
D03*
X235500D02*
D03*
X217500D02*
D03*
X196000Y148500D02*
D03*
X244500Y202000D02*
D03*
X229500Y245500D02*
D03*
X231000Y234500D02*
D03*
Y227500D02*
D03*
X201000Y237000D02*
D03*
D27*
X202500Y192500D02*
D03*
X217799Y154200D02*
D03*
D28*
X215500Y199500D02*
D03*
D29*
X230500Y166000D02*
D03*
D30*
X182500Y229000D02*
D03*
X244500Y189500D02*
D03*
Y180500D02*
D03*
X279500Y162000D02*
D03*
X169000Y148500D02*
D03*
X279000Y181500D02*
D03*
X150500Y169000D02*
D03*
X151000Y194000D02*
D03*
X125500Y151500D02*
D03*
X139000Y237000D02*
D03*
X236500Y189500D02*
D03*
Y157500D02*
D03*
X118000Y243000D02*
D03*
X252500Y165000D02*
D03*
D31*
X125500Y211500D02*
D03*
X123000Y197000D02*
D03*
D32*
X236500Y202000D02*
D03*
D33*
X231000Y220000D02*
D03*
Y211500D02*
D03*
D34*
X118000Y205000D02*
D03*
D55*
X121000Y188000D02*
D03*
D56*
X123000D02*
D03*
X125000D02*
D03*
Y178000D02*
D03*
X123000D02*
D03*
X121000D02*
D03*
D57*
X217024Y172965D02*
D03*
X213874D02*
D03*
X210724D02*
D03*
X207575D02*
D03*
X204425D02*
D03*
X201276D02*
D03*
X198126D02*
D03*
X194976D02*
D03*
Y206035D02*
D03*
X198126D02*
D03*
X201276D02*
D03*
X204425D02*
D03*
X207575D02*
D03*
X210724D02*
D03*
X213874D02*
D03*
X217024D02*
D03*
D58*
X189465Y178476D02*
D03*
Y181626D02*
D03*
Y184776D02*
D03*
Y187925D02*
D03*
Y191075D02*
D03*
Y194224D02*
D03*
Y197374D02*
D03*
Y200524D02*
D03*
X222535D02*
D03*
Y197374D02*
D03*
Y194224D02*
D03*
Y191075D02*
D03*
Y187925D02*
D03*
Y184776D02*
D03*
Y181626D02*
D03*
Y178476D02*
D03*
M02*
