%FSLAX25Y25*%
%MOIN*%
G70*
G01*
G75*
G04 Layer_Physical_Order=2*
G04 Layer_Color=32768*
%ADD10R,0.03543X0.03150*%
%ADD11O,0.01181X0.07087*%
%ADD12O,0.07087X0.01181*%
%ADD13R,0.05906X0.05906*%
%ADD14R,0.02756X0.03543*%
%ADD15R,0.03150X0.03543*%
%ADD16R,0.04331X0.02559*%
%ADD17C,0.01000*%
%ADD18C,0.07000*%
%ADD19R,0.07000X0.07000*%
%ADD20R,0.05906X0.05906*%
%ADD21C,0.05906*%
%ADD22C,0.07284*%
%ADD23R,0.07284X0.07284*%
%ADD24C,0.05512*%
G04:AMPARAMS|DCode=25|XSize=55.12mil|YSize=55.12mil|CornerRadius=0mil|HoleSize=0mil|Usage=FLASHONLY|Rotation=0.000|XOffset=0mil|YOffset=0mil|HoleType=Round|Shape=Octagon|*
%AMOCTAGOND25*
4,1,8,0.02756,-0.01378,0.02756,0.01378,0.01378,0.02756,-0.01378,0.02756,-0.02756,0.01378,-0.02756,-0.01378,-0.01378,-0.02756,0.01378,-0.02756,0.02756,-0.01378,0.0*
%
%ADD25OCTAGOND25*%

%ADD26C,0.05000*%
%ADD27C,0.04000*%
G04:AMPARAMS|DCode=28|XSize=100mil|YSize=100mil|CornerRadius=0mil|HoleSize=0mil|Usage=FLASHONLY|Rotation=0.000|XOffset=0mil|YOffset=0mil|HoleType=Round|Shape=Relief|Width=10mil|Gap=10mil|Entries=4|*
%AMTHD28*
7,0,0,0.10000,0.08000,0.01000,45*
%
%ADD28THD28*%
%ADD29C,0.08000*%
%ADD30C,0.07543*%
G04:AMPARAMS|DCode=31|XSize=95.433mil|YSize=95.433mil|CornerRadius=0mil|HoleSize=0mil|Usage=FLASHONLY|Rotation=0.000|XOffset=0mil|YOffset=0mil|HoleType=Round|Shape=Relief|Width=10mil|Gap=10mil|Entries=4|*
%AMTHD31*
7,0,0,0.09543,0.07543,0.01000,45*
%
%ADD31THD31*%
G04:AMPARAMS|DCode=32|XSize=103.307mil|YSize=103.307mil|CornerRadius=0mil|HoleSize=0mil|Usage=FLASHONLY|Rotation=0.000|XOffset=0mil|YOffset=0mil|HoleType=Round|Shape=Relief|Width=10mil|Gap=10mil|Entries=4|*
%AMTHD32*
7,0,0,0.10331,0.08331,0.01000,45*
%
%ADD32THD32*%
%ADD33C,0.08331*%
%ADD34C,0.07150*%
G04:AMPARAMS|DCode=35|XSize=88mil|YSize=88mil|CornerRadius=0mil|HoleSize=0mil|Usage=FLASHONLY|Rotation=0.000|XOffset=0mil|YOffset=0mil|HoleType=Round|Shape=Relief|Width=10mil|Gap=10mil|Entries=4|*
%AMTHD35*
7,0,0,0.08800,0.06800,0.01000,45*
%
%ADD35THD35*%
%ADD36C,0.06800*%
D27*
X300500Y119499D02*
G03*
X301002Y120000I0J501D01*
G01*
Y254500D02*
G03*
X300501Y255001I-501J0D01*
G01*
D02*
G03*
X300000Y255502I-501J-1D01*
G01*
X102500D02*
G03*
X101998Y255000I0J-501D01*
G01*
Y120000D02*
G03*
X102500Y119499I501J0D01*
G01*
X300500D01*
X301002Y120000D02*
Y254500D01*
X102500Y255502D02*
X300000D01*
X101998Y120000D02*
Y255000D01*
D28*
X108000Y231921D02*
D03*
D29*
Y222079D02*
D03*
D30*
X112000Y166500D02*
D03*
Y176500D02*
D03*
Y186500D02*
D03*
Y196500D02*
D03*
X268000Y212000D02*
D03*
Y202000D02*
D03*
Y192000D02*
D03*
Y182000D02*
D03*
X290500Y212000D02*
D03*
Y202000D02*
D03*
Y192000D02*
D03*
Y172000D02*
D03*
D31*
X268000D02*
D03*
Y162000D02*
D03*
X290500Y182000D02*
D03*
Y162000D02*
D03*
D32*
X269000Y240000D02*
D03*
D33*
X289000D02*
D03*
D34*
X269606Y142000D02*
D03*
X250394D02*
D03*
D35*
X252500Y165000D02*
D03*
X201000Y237000D02*
D03*
X118000Y243000D02*
D03*
X236500Y157500D02*
D03*
X118000Y205000D02*
D03*
X228500Y168000D02*
D03*
X179500Y212500D02*
D03*
X209500Y216500D02*
D03*
X185500Y226500D02*
D03*
X125500Y151500D02*
D03*
X123000Y197000D02*
D03*
X125500Y211500D02*
D03*
X151000Y194000D02*
D03*
X150500Y169000D02*
D03*
X196000Y148500D02*
D03*
X235500Y245500D02*
D03*
X223500D02*
D03*
X187500D02*
D03*
X211500D02*
D03*
X169000Y148500D02*
D03*
X232000D02*
D03*
X279500Y162000D02*
D03*
X217000Y190000D02*
D03*
X215500Y175500D02*
D03*
X256500Y123500D02*
D03*
X263500D02*
D03*
X218756Y160000D02*
D03*
X203500Y180000D02*
D03*
D36*
X198000Y185000D02*
D03*
X231000Y211500D02*
D03*
X236500Y189500D02*
D03*
X139000Y237000D02*
D03*
X231000Y227500D02*
D03*
Y234500D02*
D03*
X229500Y245500D02*
D03*
X231000Y220000D02*
D03*
X244500Y202000D02*
D03*
X236500D02*
D03*
X279000Y181500D02*
D03*
X217500Y245500D02*
D03*
X205500D02*
D03*
X193500D02*
D03*
X195500Y191000D02*
D03*
X217000Y200000D02*
D03*
X211000Y199000D02*
D03*
X200500Y196000D02*
D03*
X244500Y180500D02*
D03*
Y189500D02*
D03*
X210500Y180000D02*
D03*
X206000Y189500D02*
D03*
X195500Y179000D02*
D03*
M02*
