%FSLAX25Y25*%
%MOIN*%
G70*
G01*
G75*
G04 Layer_Color=32768*
%ADD10R,0.03543X0.03150*%
%ADD11O,0.01181X0.07087*%
%ADD12O,0.07087X0.01181*%
%ADD13R,0.05906X0.05906*%
%ADD14R,0.02756X0.03543*%
%ADD15R,0.03150X0.03543*%
%ADD16R,0.04331X0.02559*%
%ADD17C,0.01000*%
%ADD18C,0.07000*%
%ADD19R,0.07000X0.07000*%
%ADD20R,0.05906X0.05906*%
%ADD21C,0.05906*%
%ADD22C,0.07284*%
%ADD23R,0.07284X0.07284*%
%ADD24C,0.05512*%
G04:AMPARAMS|DCode=25|XSize=55.12mil|YSize=55.12mil|CornerRadius=0mil|HoleSize=0mil|Usage=FLASHONLY|Rotation=0.000|XOffset=0mil|YOffset=0mil|HoleType=Round|Shape=Octagon|*
%AMOCTAGOND25*
4,1,8,0.02756,-0.01378,0.02756,0.01378,0.01378,0.02756,-0.01378,0.02756,-0.02756,0.01378,-0.02756,-0.01378,-0.01378,-0.02756,0.01378,-0.02756,0.02756,-0.01378,0.0*
%
%ADD25OCTAGOND25*%

%ADD26C,0.05000*%
%ADD27C,0.04000*%
G04:AMPARAMS|DCode=28|XSize=100mil|YSize=100mil|CornerRadius=0mil|HoleSize=0mil|Usage=FLASHONLY|Rotation=0.000|XOffset=0mil|YOffset=0mil|HoleType=Round|Shape=Relief|Width=10mil|Gap=10mil|Entries=4|*
%AMTHD28*
7,0,0,0.10000,0.08000,0.01000,45*
%
%ADD28THD28*%
%ADD29C,0.08000*%
%ADD30C,0.07543*%
G04:AMPARAMS|DCode=31|XSize=95.433mil|YSize=95.433mil|CornerRadius=0mil|HoleSize=0mil|Usage=FLASHONLY|Rotation=0.000|XOffset=0mil|YOffset=0mil|HoleType=Round|Shape=Relief|Width=10mil|Gap=10mil|Entries=4|*
%AMTHD31*
7,0,0,0.09543,0.07543,0.01000,45*
%
%ADD31THD31*%
G04:AMPARAMS|DCode=32|XSize=103.307mil|YSize=103.307mil|CornerRadius=0mil|HoleSize=0mil|Usage=FLASHONLY|Rotation=0.000|XOffset=0mil|YOffset=0mil|HoleType=Round|Shape=Relief|Width=10mil|Gap=10mil|Entries=4|*
%AMTHD32*
7,0,0,0.10331,0.08331,0.01000,45*
%
%ADD32THD32*%
%ADD33C,0.08331*%
%ADD34C,0.07150*%
G04:AMPARAMS|DCode=35|XSize=88mil|YSize=88mil|CornerRadius=0mil|HoleSize=0mil|Usage=FLASHONLY|Rotation=0.000|XOffset=0mil|YOffset=0mil|HoleType=Round|Shape=Relief|Width=10mil|Gap=10mil|Entries=4|*
%AMTHD35*
7,0,0,0.08800,0.06800,0.01000,45*
%
%ADD35THD35*%
%ADD36C,0.06800*%
%ADD37O,0.06496X0.02165*%
%ADD38O,0.02165X0.06496*%
%ADD39O,0.01575X0.07087*%
%ADD40R,0.01575X0.07087*%
%ADD41C,0.02362*%
%ADD42C,0.00984*%
%ADD43C,0.00787*%
%ADD44C,0.00961*%
%ADD45C,0.00882*%
%ADD46C,0.00870*%
%ADD47R,0.04343X0.03950*%
%ADD48O,0.01981X0.07887*%
%ADD49O,0.07887X0.01981*%
%ADD50R,0.06706X0.06706*%
%ADD51R,0.03556X0.04343*%
%ADD52R,0.03950X0.04343*%
%ADD53R,0.05131X0.03359*%
%ADD54C,0.07800*%
%ADD55R,0.07800X0.07800*%
%ADD56R,0.06706X0.06706*%
%ADD57C,0.06706*%
%ADD58C,0.08083*%
%ADD59R,0.08083X0.08083*%
%ADD60C,0.06312*%
G04:AMPARAMS|DCode=61|XSize=63.12mil|YSize=63.12mil|CornerRadius=0mil|HoleSize=0mil|Usage=FLASHONLY|Rotation=0.000|XOffset=0mil|YOffset=0mil|HoleType=Round|Shape=Octagon|*
%AMOCTAGOND61*
4,1,8,0.03156,-0.01578,0.03156,0.01578,0.01578,0.03156,-0.01578,0.03156,-0.03156,0.01578,-0.03156,-0.01578,-0.01578,-0.03156,0.01578,-0.03156,0.03156,-0.01578,0.0*
%
%ADD61OCTAGOND61*%

%ADD62C,0.05800*%
%ADD63O,0.07296X0.02965*%
%ADD64O,0.02965X0.07296*%
%ADD65O,0.02375X0.07887*%
%ADD66R,0.02375X0.07887*%
%ADD67C,0.00500*%
%ADD68C,0.00400*%
%ADD69C,0.00843*%
%ADD70C,0.00803*%
%ADD71C,0.00925*%
%ADD72C,0.00394*%
%ADD73C,0.00197*%
D72*
X204031Y189500D02*
X207968D01*
X206000Y187531D02*
Y191469D01*
X185331Y168831D02*
Y210169D01*
X226669Y168831D02*
Y210169D01*
X185331D02*
X226669D01*
X185331Y168831D02*
X226669D01*
X121031Y183000D02*
X124969D01*
X123000Y181032D02*
Y184968D01*
X202630Y216000D02*
X206370D01*
X204500Y214130D02*
Y217870D01*
X206665Y211276D02*
Y220724D01*
X202335Y211276D02*
Y220724D01*
Y211276D02*
X206665D01*
X202335Y220724D02*
X206665D01*
X210500Y163630D02*
Y167370D01*
X208630Y165500D02*
X212370D01*
X205776Y163335D02*
X215224D01*
X205776Y167665D02*
X215224D01*
X205776Y163335D02*
Y167665D01*
X215224Y163335D02*
Y167665D01*
X256500Y215130D02*
Y218870D01*
X254630Y217000D02*
X258370D01*
X251776Y214835D02*
X261224D01*
X251776Y219165D02*
X261224D01*
X251776Y214835D02*
Y219165D01*
X261224Y214835D02*
Y219165D01*
X256500Y228130D02*
Y231870D01*
X254630Y230000D02*
X258370D01*
X251776Y227835D02*
X261224D01*
X251776Y232165D02*
X261224D01*
X251776Y227835D02*
Y232165D01*
X261224Y227835D02*
Y232165D01*
X287500Y223130D02*
Y226870D01*
X285630Y225000D02*
X289370D01*
X282776Y222835D02*
X292224D01*
X282776Y227165D02*
X292224D01*
X282776Y222835D02*
Y227165D01*
X292224Y222835D02*
Y227165D01*
X125630Y240000D02*
X129370D01*
X127500Y238130D02*
Y241870D01*
X125335Y235276D02*
Y244724D01*
X129665Y235276D02*
Y244724D01*
X125335Y235276D02*
X129665D01*
X125335Y244724D02*
X129665D01*
X116130Y214500D02*
X119870D01*
X118000Y212630D02*
Y216370D01*
X120165Y209776D02*
Y219224D01*
X115835Y209776D02*
Y219224D01*
X120165D01*
X115835Y209776D02*
X120165D01*
X206500Y188031D02*
Y191969D01*
X204532Y190000D02*
X208469D01*
X180122Y163622D02*
X232878D01*
X180122Y216378D02*
X232878D01*
Y163622D02*
Y216378D01*
X180122Y163622D02*
Y216378D01*
X135500Y157130D02*
Y160870D01*
X133630Y159000D02*
X137370D01*
X130776Y156835D02*
X140224D01*
X130776Y161165D02*
X140224D01*
Y156835D02*
Y161165D01*
X130776Y156835D02*
Y161165D01*
X135500Y174630D02*
Y178370D01*
X133630Y176500D02*
X137370D01*
X130776Y174335D02*
X140224D01*
X130776Y178665D02*
X140224D01*
Y174335D02*
Y178665D01*
X130776Y174335D02*
Y178665D01*
X135500Y202130D02*
Y205870D01*
X133630Y204000D02*
X137370D01*
X130776Y201835D02*
X140224D01*
X130776Y206165D02*
X140224D01*
Y201835D02*
Y206165D01*
X130776Y201835D02*
Y206165D01*
X135500Y149630D02*
Y153370D01*
X133630Y151500D02*
X137370D01*
X130776Y149335D02*
X140224D01*
X130776Y153665D02*
X140224D01*
Y149335D02*
Y153665D01*
X130776Y149335D02*
Y153665D01*
X141000Y167130D02*
Y170870D01*
X139130Y169000D02*
X142870D01*
X136276Y171165D02*
X145724D01*
X136276Y166835D02*
X145724D01*
X136276D02*
Y171165D01*
X145724Y166835D02*
Y171165D01*
X135500Y184630D02*
Y188370D01*
X133630Y186500D02*
X137370D01*
X130776Y184335D02*
X140224D01*
X130776Y188665D02*
X140224D01*
Y184335D02*
Y188665D01*
X130776Y184335D02*
Y188665D01*
X141500Y192130D02*
Y195870D01*
X139630Y194000D02*
X143370D01*
X136776Y196165D02*
X146224D01*
X136776Y191835D02*
X146224D01*
X136776D02*
Y196165D01*
X146224Y191835D02*
Y196165D01*
X135500Y209630D02*
Y213370D01*
X133630Y211500D02*
X137370D01*
X130776Y209335D02*
X140224D01*
X130776Y213665D02*
X140224D01*
Y209335D02*
Y213665D01*
X130776Y209335D02*
Y213665D01*
X221130Y151000D02*
X224870D01*
X223000Y149130D02*
Y152870D01*
X225165Y146276D02*
Y155724D01*
X220835Y146276D02*
Y155724D01*
X225165D01*
X220835Y146276D02*
X225165D01*
X205630Y227000D02*
X209370D01*
X207500Y225130D02*
Y228870D01*
X205335Y222276D02*
Y231724D01*
X209665Y222276D02*
Y231724D01*
X205335Y222276D02*
X209665D01*
X205335Y231724D02*
X209665D01*
X211630Y151000D02*
X215370D01*
X213500Y149130D02*
Y152870D01*
X215665Y146276D02*
Y155724D01*
X211335Y146276D02*
Y155724D01*
X215665D01*
X211335Y146276D02*
X215665D01*
X197630Y227000D02*
X201370D01*
X199500Y225130D02*
Y228870D01*
X197335Y222276D02*
Y231724D01*
X201665Y222276D02*
Y231724D01*
X197335Y222276D02*
X201665D01*
X197335Y231724D02*
X201665D01*
X202630Y151000D02*
X206370D01*
X204500Y149130D02*
Y152870D01*
X206665Y146276D02*
Y155724D01*
X202335Y146276D02*
Y155724D01*
X206665D01*
X202335Y146276D02*
X206665D01*
X158000Y202130D02*
Y205870D01*
X156130Y204000D02*
X159870D01*
X153276Y206165D02*
X162724D01*
X153276Y201835D02*
X162724D01*
X153276D02*
Y206165D01*
X162724Y201835D02*
Y206165D01*
X158000Y212130D02*
Y215870D01*
X156130Y214000D02*
X159870D01*
X153276Y216165D02*
X162724D01*
X153276Y211835D02*
X162724D01*
X153276D02*
Y216165D01*
X162724Y211835D02*
Y216165D01*
X186630Y149500D02*
X190370D01*
X188500Y147630D02*
Y151370D01*
X186335Y144776D02*
Y154224D01*
X190665Y144776D02*
Y154224D01*
X186335Y144776D02*
X190665D01*
X186335Y154224D02*
X190665D01*
X177130Y149500D02*
X180870D01*
X179000Y147630D02*
Y151370D01*
X176835Y144776D02*
Y154224D01*
X181165Y144776D02*
Y154224D01*
X176835Y144776D02*
X181165D01*
X176835Y154224D02*
X181165D01*
X234630Y168000D02*
X238370D01*
X236500Y166130D02*
Y169870D01*
X238665Y163276D02*
Y172724D01*
X234335Y163276D02*
Y172724D01*
X238665D01*
X234335Y163276D02*
X238665D01*
X241130Y168000D02*
X244870D01*
X243000Y166130D02*
Y169870D01*
X245165Y163276D02*
Y172724D01*
X240835Y163276D02*
Y172724D01*
X245165D01*
X240835Y163276D02*
X245165D01*
X194500Y213130D02*
Y216870D01*
X192630Y215000D02*
X196370D01*
X189776Y212835D02*
X199224D01*
X189776Y217165D02*
X199224D01*
X189776Y212835D02*
Y217165D01*
X199224Y212835D02*
Y217165D01*
X256500Y239630D02*
Y243370D01*
X254630Y241500D02*
X258370D01*
X251776Y239335D02*
X261224D01*
X251776Y243665D02*
X261224D01*
X251776Y239335D02*
Y243665D01*
X261224Y239335D02*
Y243665D01*
X279500Y190130D02*
Y193870D01*
X277630Y192000D02*
X281370D01*
X274776Y194165D02*
X284224D01*
X274776Y189835D02*
X284224D01*
Y194165D01*
X274776Y189835D02*
Y194165D01*
X279500Y200130D02*
Y203870D01*
X277630Y202000D02*
X281370D01*
X274776Y204165D02*
X284224D01*
X274776Y199835D02*
X284224D01*
Y204165D01*
X274776Y199835D02*
Y204165D01*
X114626Y219413D02*
Y233587D01*
X130374Y219413D02*
Y233587D01*
X114626D02*
X130374D01*
X114626Y219413D02*
X130374D01*
X120531Y226500D02*
X124469D01*
X122500Y224532D02*
Y228468D01*
X267630Y126500D02*
X271370D01*
X269500Y124630D02*
Y128370D01*
X267335Y121776D02*
Y131224D01*
X271665Y121776D02*
Y131224D01*
X267335D02*
X271665D01*
X267335Y121776D02*
X271665D01*
X248130Y126244D02*
X251870D01*
X250000Y124374D02*
Y128114D01*
X247835Y121520D02*
Y130968D01*
X252165Y121520D02*
Y130968D01*
X247835D02*
X252165D01*
X247835Y121520D02*
X252165D01*
D73*
X127331Y176602D02*
Y189398D01*
X118669Y176602D02*
Y189398D01*
M02*
