M48
;Layer_Color=9474304
;FILE_FORMAT=2:5
INCH
T6F00S00C0.20000
%
G90
G05
T06
G00X0300275Y0109498
M15
G01X0300799Y0109462
G01X0302779Y0109720
G01X0304327Y0110218
G01X0304711Y0110377
G01X0306471Y0111322
G01X0308008Y0112598
G01X0309260Y0114154
G01X0310123Y0115789
G01X0310282Y0116173
G01X0310858Y0118086
G01X0311043Y0120003
G01X0311002Y0254275
G01X0311038Y0254799
G01X0310780Y0256779
G01X0310282Y0258327
G01X0310123Y0258711
G01X0309178Y0260471
G01X0307902Y0262008
G01X0307646Y0262214
G01X0307402Y0262508
G01X0305846Y0263760
G01X0304211Y0264623
G01X0303827Y0264782
G01X0301914Y0265358
G01X0299998Y0265543
G01X0102725Y0265502
G01X0102201Y0265538
G01X0100221Y0265280
G01X0098673Y0264782
G01X0098289Y0264623
G01X0096529Y0263678
G01X0094992Y0262402
G01X0093740Y0260846
G01X0092877Y0259211
G01X0092718Y0258827
G01X0092142Y0256914
G01X0091957Y0254997
G01X0091998Y0120225
G01X0091962Y0119701
G01X0092220Y0117721
G01X0092718Y0116173
G01X0092877Y0115789
G01X0093822Y0114029
G01X0095098Y0112492
G01X0096654Y0111240
G01X0098289Y0110377
G01X0098673Y0110218
G01X0100586Y0109642
G01X0102502Y0109457
G01X0300275Y0109498
M16
M17
M30
