%FSLAX25Y25*%
%MOIN*%
G70*
G01*
G75*
G04 Layer_Color=65535*
%ADD10R,0.04331X0.02559*%
%ADD11R,0.03543X0.03150*%
%ADD12R,0.03150X0.03543*%
%ADD13R,0.02756X0.03543*%
%ADD14R,0.05906X0.05906*%
%ADD15O,0.07087X0.01181*%
%ADD16O,0.01181X0.07087*%
%ADD17C,0.01000*%
G04:AMPARAMS|DCode=18|XSize=55.12mil|YSize=55.12mil|CornerRadius=0mil|HoleSize=0mil|Usage=FLASHONLY|Rotation=0.000|XOffset=0mil|YOffset=0mil|HoleType=Round|Shape=Octagon|*
%AMOCTAGOND18*
4,1,8,0.02756,-0.01378,0.02756,0.01378,0.01378,0.02756,-0.01378,0.02756,-0.02756,0.01378,-0.02756,-0.01378,-0.01378,-0.02756,0.01378,-0.02756,0.02756,-0.01378,0.0*
%
%ADD18OCTAGOND18*%

%ADD19C,0.05512*%
%ADD20R,0.05906X0.05906*%
%ADD21C,0.05906*%
%ADD22R,0.07284X0.07284*%
%ADD23C,0.07284*%
%ADD24R,0.07000X0.07000*%
%ADD25C,0.07000*%
%ADD26C,0.02677*%
%ADD27C,0.02402*%
%ADD28C,0.02441*%
%ADD29C,0.02559*%
%ADD30C,0.05000*%
%ADD31C,0.02480*%
%ADD32C,0.02713*%
%ADD33C,0.02953*%
%ADD34C,0.02500*%
%ADD35C,0.04000*%
%ADD36C,0.07150*%
G04:AMPARAMS|DCode=37|XSize=95.433mil|YSize=95.433mil|CornerRadius=0mil|HoleSize=0mil|Usage=FLASHONLY|Rotation=0.000|XOffset=0mil|YOffset=0mil|HoleType=Round|Shape=Relief|Width=10mil|Gap=10mil|Entries=4|*
%AMTHD37*
7,0,0,0.09543,0.07543,0.01000,45*
%
%ADD37THD37*%
%ADD38C,0.07543*%
%ADD39C,0.08331*%
G04:AMPARAMS|DCode=40|XSize=103.307mil|YSize=103.307mil|CornerRadius=0mil|HoleSize=0mil|Usage=FLASHONLY|Rotation=0.000|XOffset=0mil|YOffset=0mil|HoleType=Round|Shape=Relief|Width=10mil|Gap=10mil|Entries=4|*
%AMTHD40*
7,0,0,0.10331,0.08331,0.01000,45*
%
%ADD40THD40*%
%ADD41C,0.08000*%
G04:AMPARAMS|DCode=42|XSize=100mil|YSize=100mil|CornerRadius=0mil|HoleSize=0mil|Usage=FLASHONLY|Rotation=0.000|XOffset=0mil|YOffset=0mil|HoleType=Round|Shape=Relief|Width=10mil|Gap=10mil|Entries=4|*
%AMTHD42*
7,0,0,0.10000,0.08000,0.01000,45*
%
%ADD42THD42*%
G04:AMPARAMS|DCode=43|XSize=73.819mil|YSize=73.819mil|CornerRadius=0mil|HoleSize=0mil|Usage=FLASHONLY|Rotation=0.000|XOffset=0mil|YOffset=0mil|HoleType=Round|Shape=Relief|Width=10mil|Gap=10mil|Entries=4|*
%AMTHD43*
7,0,0,0.07382,0.05382,0.01000,45*
%
%ADD43THD43*%
%ADD44C,0.05382*%
%ADD45C,0.05378*%
%ADD46C,0.05221*%
G04:AMPARAMS|DCode=47|XSize=74.961mil|YSize=74.961mil|CornerRadius=0mil|HoleSize=0mil|Usage=FLASHONLY|Rotation=0.000|XOffset=0mil|YOffset=0mil|HoleType=Round|Shape=Relief|Width=10mil|Gap=10mil|Entries=4|*
%AMTHD47*
7,0,0,0.07496,0.05496,0.01000,45*
%
%ADD47THD47*%
G04:AMPARAMS|DCode=48|XSize=73.779mil|YSize=73.779mil|CornerRadius=0mil|HoleSize=0mil|Usage=FLASHONLY|Rotation=0.000|XOffset=0mil|YOffset=0mil|HoleType=Round|Shape=Relief|Width=10mil|Gap=10mil|Entries=4|*
%AMTHD48*
7,0,0,0.07378,0.05378,0.01000,45*
%
%ADD48THD48*%
G04:AMPARAMS|DCode=49|XSize=75mil|YSize=75mil|CornerRadius=0mil|HoleSize=0mil|Usage=FLASHONLY|Rotation=0.000|XOffset=0mil|YOffset=0mil|HoleType=Round|Shape=Relief|Width=10mil|Gap=10mil|Entries=4|*
%AMTHD49*
7,0,0,0.07500,0.05500,0.01000,45*
%
%ADD49THD49*%
G04:AMPARAMS|DCode=50|XSize=88mil|YSize=88mil|CornerRadius=0mil|HoleSize=0mil|Usage=FLASHONLY|Rotation=0.000|XOffset=0mil|YOffset=0mil|HoleType=Round|Shape=Relief|Width=10mil|Gap=10mil|Entries=4|*
%AMTHD50*
7,0,0,0.08800,0.06800,0.01000,45*
%
%ADD50THD50*%
%ADD51C,0.06800*%
G04:AMPARAMS|DCode=52|XSize=72.205mil|YSize=72.205mil|CornerRadius=0mil|HoleSize=0mil|Usage=FLASHONLY|Rotation=0.000|XOffset=0mil|YOffset=0mil|HoleType=Round|Shape=Relief|Width=10mil|Gap=10mil|Entries=4|*
%AMTHD52*
7,0,0,0.07220,0.05221,0.01000,45*
%
%ADD52THD52*%
%ADD53C,0.05496*%
%ADD54C,0.05500*%
%ADD55R,0.01575X0.07087*%
%ADD56O,0.01575X0.07087*%
%ADD57O,0.02165X0.06496*%
%ADD58O,0.06496X0.02165*%
%ADD59C,0.00984*%
%ADD60C,0.02362*%
%ADD61C,0.00787*%
%ADD62C,0.00870*%
%ADD63C,0.00961*%
%ADD64C,0.00882*%
D17*
X178000Y171498D02*
Y166500D01*
X179000Y165500D01*
X180999D01*
X181999Y166500D01*
Y171498D01*
X183998Y165500D02*
X185997D01*
X184998D01*
Y171498D01*
X183998Y170498D01*
X142500Y151000D02*
Y156998D01*
X145499D01*
X146499Y155998D01*
Y153999D01*
X145499Y152999D01*
X142500D01*
X144499D02*
X146499Y151000D01*
X148498D02*
X150497D01*
X149498D01*
Y156998D01*
X148498Y155998D01*
X153496D02*
X154496Y156998D01*
X156495D01*
X157495Y155998D01*
Y152000D01*
X156495Y151000D01*
X154496D01*
X153496Y152000D01*
Y155998D01*
X154500Y170000D02*
Y175998D01*
X157499D01*
X158499Y174998D01*
Y172999D01*
X157499Y171999D01*
X154500D01*
X156499D02*
X158499Y170000D01*
X160498Y171000D02*
X161498Y170000D01*
X163497D01*
X164497Y171000D01*
Y174998D01*
X163497Y175998D01*
X161498D01*
X160498Y174998D01*
Y173999D01*
X161498Y172999D01*
X164497D01*
X149500Y182000D02*
Y187998D01*
X152499D01*
X153499Y186998D01*
Y184999D01*
X152499Y183999D01*
X149500D01*
X151499D02*
X153499Y182000D01*
X155498Y186998D02*
X156498Y187998D01*
X158497D01*
X159497Y186998D01*
Y185999D01*
X158497Y184999D01*
X159497Y183999D01*
Y183000D01*
X158497Y182000D01*
X156498D01*
X155498Y183000D01*
Y183999D01*
X156498Y184999D01*
X155498Y185999D01*
Y186998D01*
X156498Y184999D02*
X158497D01*
X142000Y206500D02*
Y212498D01*
X144999D01*
X145999Y211498D01*
Y209499D01*
X144999Y208499D01*
X142000D01*
X143999D02*
X145999Y206500D01*
X147998Y212498D02*
X151997D01*
Y211498D01*
X147998Y207500D01*
Y206500D01*
X153500Y218000D02*
Y223998D01*
X156499D01*
X157499Y222998D01*
Y220999D01*
X156499Y219999D01*
X153500D01*
X155499D02*
X157499Y218000D01*
X163497Y223998D02*
X161497Y222998D01*
X159498Y220999D01*
Y219000D01*
X160498Y218000D01*
X162497D01*
X163497Y219000D01*
Y219999D01*
X162497Y220999D01*
X159498D01*
X103500Y204000D02*
Y209998D01*
X106499D01*
X107499Y208998D01*
Y206999D01*
X106499Y205999D01*
X103500D01*
X109498Y204000D02*
X111497D01*
X110498D01*
Y209998D01*
X109498Y208998D01*
X132500Y232998D02*
Y227000D01*
X136499D01*
X138498Y232998D02*
Y227000D01*
X141497D01*
X142497Y228000D01*
Y231998D01*
X141497Y232998D01*
X138498D01*
X147495D02*
X145496D01*
X144496Y231998D01*
Y228000D01*
X145496Y227000D01*
X147495D01*
X148495Y228000D01*
Y231998D01*
X147495Y232998D01*
X240500Y248998D02*
Y243000D01*
X243499D01*
X244499Y244000D01*
Y247998D01*
X243499Y248998D01*
X240500D01*
X246498Y247998D02*
X247498Y248998D01*
X249497D01*
X250497Y247998D01*
Y246999D01*
X249497Y245999D01*
X248497D01*
X249497D01*
X250497Y244999D01*
Y244000D01*
X249497Y243000D01*
X247498D01*
X246498Y244000D01*
X250500Y203998D02*
Y198000D01*
X253499D01*
X254499Y199000D01*
Y202998D01*
X253499Y203998D01*
X250500D01*
X256498Y198000D02*
X258497D01*
X257498D01*
Y203998D01*
X256498Y202998D01*
X134999Y220498D02*
X133999Y221498D01*
X132000D01*
X131000Y220498D01*
Y216500D01*
X132000Y215500D01*
X133999D01*
X134999Y216500D01*
X140997Y215500D02*
X136998D01*
X140997Y219499D01*
Y220498D01*
X139997Y221498D01*
X137998D01*
X136998Y220498D01*
X146995Y221498D02*
X142996D01*
Y218499D01*
X144995Y219499D01*
X145995D01*
X146995Y218499D01*
Y216500D01*
X145995Y215500D01*
X143996D01*
X142996Y216500D01*
X158999Y195498D02*
X157999Y196498D01*
X156000D01*
X155000Y195498D01*
Y191500D01*
X156000Y190500D01*
X157999D01*
X158999Y191500D01*
X164997Y190500D02*
X160998D01*
X164997Y194499D01*
Y195498D01*
X163997Y196498D01*
X161998D01*
X160998Y195498D01*
X169995Y190500D02*
Y196498D01*
X166996Y193499D01*
X170995D01*
X157999Y165998D02*
X156999Y166998D01*
X155000D01*
X154000Y165998D01*
Y162000D01*
X155000Y161000D01*
X156999D01*
X157999Y162000D01*
X163997Y161000D02*
X159998D01*
X163997Y164999D01*
Y165998D01*
X162997Y166998D01*
X160998D01*
X159998Y165998D01*
X165996D02*
X166996Y166998D01*
X168995D01*
X169995Y165998D01*
Y164999D01*
X168995Y163999D01*
X167996D01*
X168995D01*
X169995Y162999D01*
Y162000D01*
X168995Y161000D01*
X166996D01*
X165996Y162000D01*
X129999Y145998D02*
X128999Y146998D01*
X127000D01*
X126000Y145998D01*
Y142000D01*
X127000Y141000D01*
X128999D01*
X129999Y142000D01*
X135997Y141000D02*
X131998D01*
X135997Y144999D01*
Y145998D01*
X134997Y146998D01*
X132998D01*
X131998Y145998D01*
X141995Y141000D02*
X137996D01*
X141995Y144999D01*
Y145998D01*
X140995Y146998D01*
X138996D01*
X137996Y145998D01*
X137499Y247498D02*
X136499Y248498D01*
X134500D01*
X133500Y247498D01*
Y243500D01*
X134500Y242500D01*
X136499D01*
X137499Y243500D01*
X143497Y242500D02*
X139498D01*
X143497Y246499D01*
Y247498D01*
X142497Y248498D01*
X140498D01*
X139498Y247498D01*
X145496Y242500D02*
X147495D01*
X146496D01*
Y248498D01*
X145496Y247498D01*
X158999Y233998D02*
X157999Y234998D01*
X156000D01*
X155000Y233998D01*
Y230000D01*
X156000Y229000D01*
X157999D01*
X158999Y230000D01*
X164997Y229000D02*
X160998D01*
X164997Y232999D01*
Y233998D01*
X163997Y234998D01*
X161998D01*
X160998Y233998D01*
X166996D02*
X167996Y234998D01*
X169995D01*
X170995Y233998D01*
Y230000D01*
X169995Y229000D01*
X167996D01*
X166996Y230000D01*
Y233998D01*
X168499Y206998D02*
X167499Y207998D01*
X165500D01*
X164500Y206998D01*
Y203000D01*
X165500Y202000D01*
X167499D01*
X168499Y203000D01*
X170498Y202000D02*
X172497D01*
X171498D01*
Y207998D01*
X170498Y206998D01*
X175496Y203000D02*
X176496Y202000D01*
X178496D01*
X179495Y203000D01*
Y206998D01*
X178496Y207998D01*
X176496D01*
X175496Y206998D01*
Y205999D01*
X176496Y204999D01*
X179495D01*
X211502Y132999D02*
X210502Y131999D01*
Y130000D01*
X211502Y129000D01*
X215500D01*
X216500Y130000D01*
Y131999D01*
X215500Y132999D01*
X216500Y134998D02*
Y136997D01*
Y135998D01*
X210502D01*
X211502Y134998D01*
Y139996D02*
X210502Y140996D01*
Y142996D01*
X211502Y143995D01*
X212501D01*
X213501Y142996D01*
X214501Y143995D01*
X215500D01*
X216500Y142996D01*
Y140996D01*
X215500Y139996D01*
X214501D01*
X213501Y140996D01*
X212501Y139996D01*
X211502D01*
X213501Y140996D02*
Y142996D01*
X221502Y133499D02*
X220502Y132499D01*
Y130500D01*
X221502Y129500D01*
X225500D01*
X226500Y130500D01*
Y132499D01*
X225500Y133499D01*
X226500Y135498D02*
Y137497D01*
Y136498D01*
X220502D01*
X221502Y135498D01*
X220502Y140496D02*
Y144495D01*
X221502D01*
X225500Y140496D01*
X226500D01*
X215420Y230463D02*
X214420Y231463D01*
X212421D01*
X211421Y230463D01*
Y226464D01*
X212421Y225465D01*
X214420D01*
X215420Y226464D01*
X217419Y225465D02*
X219419D01*
X218419D01*
Y231463D01*
X217419Y230463D01*
X226416Y231463D02*
X224417Y230463D01*
X222418Y228464D01*
Y226464D01*
X223417Y225465D01*
X225417D01*
X226416Y226464D01*
Y227464D01*
X225417Y228464D01*
X222418D01*
X209999Y238998D02*
X208999Y239998D01*
X207000D01*
X206000Y238998D01*
Y235000D01*
X207000Y234000D01*
X208999D01*
X209999Y235000D01*
X211998Y234000D02*
X213997D01*
X212998D01*
Y239998D01*
X211998Y238998D01*
X220995Y239998D02*
X216996D01*
Y236999D01*
X218996Y237999D01*
X219995D01*
X220995Y236999D01*
Y235000D01*
X219995Y234000D01*
X217996D01*
X216996Y235000D01*
X201502Y133499D02*
X200502Y132499D01*
Y130500D01*
X201502Y129500D01*
X205500D01*
X206500Y130500D01*
Y132499D01*
X205500Y133499D01*
X206500Y135498D02*
Y137497D01*
Y136498D01*
X200502D01*
X201502Y135498D01*
X206500Y143496D02*
X200502D01*
X203501Y140496D01*
Y144495D01*
X176002Y133499D02*
X175002Y132499D01*
Y130500D01*
X176002Y129500D01*
X180000D01*
X181000Y130500D01*
Y132499D01*
X180000Y133499D01*
X181000Y135498D02*
Y137497D01*
Y136498D01*
X175002D01*
X176002Y135498D01*
X181000Y140496D02*
Y142496D01*
Y141496D01*
X175002D01*
X176002Y140496D01*
X187002Y131999D02*
X186002Y130999D01*
Y129000D01*
X187002Y128000D01*
X191000D01*
X192000Y129000D01*
Y130999D01*
X191000Y131999D01*
X192000Y133998D02*
Y135997D01*
Y134998D01*
X186002D01*
X187002Y133998D01*
Y138996D02*
X186002Y139996D01*
Y141996D01*
X187002Y142995D01*
X191000D01*
X192000Y141996D01*
Y139996D01*
X191000Y138996D01*
X187002D01*
X251999Y175754D02*
X250999Y176754D01*
X249000D01*
X248000Y175754D01*
Y171756D01*
X249000Y170756D01*
X250999D01*
X251999Y171756D01*
X253998D02*
X254998Y170756D01*
X256997D01*
X257997Y171756D01*
Y175754D01*
X256997Y176754D01*
X254998D01*
X253998Y175754D01*
Y174755D01*
X254998Y173755D01*
X257997D01*
D59*
X118268Y233685D02*
G03*
X118268Y233685I-492J0D01*
G01*
X298236Y240004D02*
G03*
X298236Y240004I-492J0D01*
G01*
X185142Y207520D02*
G03*
X185142Y207520I-492J0D01*
G01*
D60*
X194886Y202795D02*
G03*
X194886Y202795I-1181J0D01*
G01*
D61*
X237559Y132748D02*
Y151252D01*
X237559D02*
X282441D01*
Y132748D02*
Y151252D01*
X237559Y132748D02*
X282441D01*
X123484Y220398D02*
Y232602D01*
X121516Y220398D02*
Y232602D01*
Y220398D02*
X123484D01*
X121516Y232602D02*
X123484D01*
X285500Y217000D02*
X295500D01*
X285500Y157000D02*
X295500D01*
X285500D02*
Y217000D01*
X295500Y157000D02*
Y217000D01*
X262150Y234000D02*
X295850D01*
X262150D02*
Y246500D01*
X295850D01*
Y234000D02*
Y246500D01*
X263000Y217000D02*
X273000D01*
X263000Y157000D02*
X273000D01*
X263000D02*
Y217000D01*
X273000Y157000D02*
Y217000D01*
X237370Y230972D02*
X244063D01*
X235402Y238453D02*
X237370Y240028D01*
X235402Y232547D02*
X237370Y230972D01*
Y240028D02*
X244063D01*
X235402Y232547D02*
Y238453D01*
X259417Y230972D02*
Y240028D01*
X251937Y230972D02*
X259417D01*
X251937Y240028D02*
X259417D01*
X237370Y206472D02*
X244063D01*
X235402Y213953D02*
X237370Y215528D01*
X235402Y208047D02*
X237370Y206472D01*
Y215528D02*
X244063D01*
X235402Y208047D02*
Y213953D01*
X259417Y206472D02*
Y215528D01*
X251937Y206472D02*
X259417D01*
X251937Y215528D02*
X259417D01*
X237370Y218972D02*
X244063D01*
X235402Y226453D02*
X237370Y228028D01*
X235402Y220547D02*
X237370Y218972D01*
Y228028D02*
X244063D01*
X235402Y220547D02*
Y226453D01*
X259417Y218972D02*
Y228028D01*
X251937Y218972D02*
X259417D01*
X251937Y228028D02*
X259417D01*
X189768Y173268D02*
Y206732D01*
X223232Y173268D02*
Y206732D01*
X189768D02*
X223232D01*
X189768Y173268D02*
X223232D01*
X107000Y161500D02*
X117000D01*
X107000D02*
Y201500D01*
X117000Y161500D02*
Y201500D01*
X107000D02*
X117000D01*
D62*
X273500Y125500D02*
X275276D01*
X274388D01*
Y130829D01*
X273500Y129941D01*
X281493Y130829D02*
X279717Y129941D01*
X277941Y128165D01*
Y126388D01*
X278829Y125500D01*
X280605D01*
X281493Y126388D01*
Y127276D01*
X280605Y128165D01*
X277941D01*
X283270Y125500D02*
Y130829D01*
X285046Y129053D01*
X286823Y130829D01*
Y125500D01*
X288599Y130829D02*
Y125500D01*
Y128165D01*
X292151D01*
Y130829D01*
Y125500D01*
X293928Y129053D02*
X297481D01*
X293928Y125500D01*
X297481D01*
D63*
X289449Y230686D02*
X288712Y231424D01*
X287237D01*
X286500Y230686D01*
Y229949D01*
X287237Y229212D01*
X288712D01*
X289449Y228475D01*
Y227737D01*
X288712Y227000D01*
X287237D01*
X286500Y227737D01*
X290924Y227000D02*
X292398D01*
X291661D01*
Y231424D01*
X290924Y230686D01*
X286000Y219500D02*
Y224829D01*
X288665D01*
X289553Y223941D01*
Y222165D01*
X288665Y221276D01*
X286000D01*
X291329Y223941D02*
X292217Y224829D01*
X293993D01*
X294882Y223941D01*
Y223053D01*
X293993Y222165D01*
X293105D01*
X293993D01*
X294882Y221276D01*
Y220388D01*
X293993Y219500D01*
X292217D01*
X291329Y220388D01*
X264000Y219500D02*
Y224829D01*
X266665D01*
X267553Y223941D01*
Y222165D01*
X266665Y221276D01*
X264000D01*
X272882Y219500D02*
X269329D01*
X272882Y223053D01*
Y223941D01*
X271993Y224829D01*
X270217D01*
X269329Y223941D01*
X264000Y231487D02*
Y227000D01*
X266243D01*
X266991Y227748D01*
Y230739D01*
X266243Y231487D01*
X264000D01*
X271478Y227000D02*
X268487D01*
X271478Y229991D01*
Y230739D01*
X270730Y231487D01*
X269234D01*
X268487Y230739D01*
D64*
X245974Y159342D02*
X245106Y160211D01*
X243369D01*
X242500Y159342D01*
Y155868D01*
X243369Y155000D01*
X245106D01*
X245974Y155868D01*
X247711Y159342D02*
X248579Y160211D01*
X250316D01*
X251185Y159342D01*
Y158474D01*
X250316Y157606D01*
X251185Y156737D01*
Y155868D01*
X250316Y155000D01*
X248579D01*
X247711Y155868D01*
Y156737D01*
X248579Y157606D01*
X247711Y158474D01*
Y159342D01*
X248579Y157606D02*
X250316D01*
M02*
