%FSLAX25Y25*%
%MOIN*%
G70*
G01*
G75*
%ADD10R,0.03543X0.03150*%
%ADD11O,0.01181X0.07087*%
%ADD12O,0.07087X0.01181*%
%ADD13R,0.05906X0.05906*%
%ADD14R,0.02756X0.03543*%
%ADD15R,0.03150X0.03543*%
%ADD16R,0.04331X0.02559*%
%ADD17C,0.01000*%
%ADD18C,0.07000*%
%ADD19R,0.07000X0.07000*%
%ADD20R,0.05906X0.05906*%
%ADD21C,0.05906*%
%ADD22C,0.07284*%
%ADD23R,0.07284X0.07284*%
%ADD24C,0.05512*%
G04:AMPARAMS|DCode=25|XSize=55.12mil|YSize=55.12mil|CornerRadius=0mil|HoleSize=0mil|Usage=FLASHONLY|Rotation=0.000|XOffset=0mil|YOffset=0mil|HoleType=Round|Shape=Octagon|*
%AMOCTAGOND25*
4,1,8,0.02756,-0.01378,0.02756,0.01378,0.01378,0.02756,-0.01378,0.02756,-0.02756,0.01378,-0.02756,-0.01378,-0.01378,-0.02756,0.01378,-0.02756,0.02756,-0.01378,0.0*
%
%ADD25OCTAGOND25*%

%ADD26C,0.05000*%
%ADD27C,0.04000*%
G04:AMPARAMS|DCode=28|XSize=100mil|YSize=100mil|CornerRadius=0mil|HoleSize=0mil|Usage=FLASHONLY|Rotation=0.000|XOffset=0mil|YOffset=0mil|HoleType=Round|Shape=Relief|Width=10mil|Gap=10mil|Entries=4|*
%AMTHD28*
7,0,0,0.10000,0.08000,0.01000,45*
%
%ADD28THD28*%
%ADD29C,0.08000*%
%ADD30C,0.07543*%
G04:AMPARAMS|DCode=31|XSize=95.433mil|YSize=95.433mil|CornerRadius=0mil|HoleSize=0mil|Usage=FLASHONLY|Rotation=0.000|XOffset=0mil|YOffset=0mil|HoleType=Round|Shape=Relief|Width=10mil|Gap=10mil|Entries=4|*
%AMTHD31*
7,0,0,0.09543,0.07543,0.01000,45*
%
%ADD31THD31*%
G04:AMPARAMS|DCode=32|XSize=103.307mil|YSize=103.307mil|CornerRadius=0mil|HoleSize=0mil|Usage=FLASHONLY|Rotation=0.000|XOffset=0mil|YOffset=0mil|HoleType=Round|Shape=Relief|Width=10mil|Gap=10mil|Entries=4|*
%AMTHD32*
7,0,0,0.10331,0.08331,0.01000,45*
%
%ADD32THD32*%
%ADD33C,0.08331*%
%ADD34C,0.07150*%
G04:AMPARAMS|DCode=35|XSize=88mil|YSize=88mil|CornerRadius=0mil|HoleSize=0mil|Usage=FLASHONLY|Rotation=0.000|XOffset=0mil|YOffset=0mil|HoleType=Round|Shape=Relief|Width=10mil|Gap=10mil|Entries=4|*
%AMTHD35*
7,0,0,0.08800,0.06800,0.01000,45*
%
%ADD35THD35*%
%ADD36C,0.06800*%
%ADD37O,0.06496X0.02165*%
%ADD38O,0.02165X0.06496*%
%ADD39O,0.01575X0.07087*%
%ADD40R,0.01575X0.07087*%
%ADD41C,0.02362*%
%ADD42C,0.00984*%
%ADD43C,0.00787*%
%ADD44C,0.00961*%
%ADD45C,0.00882*%
%ADD46C,0.00870*%
%ADD47R,0.04343X0.03950*%
%ADD48O,0.01981X0.07887*%
%ADD49O,0.07887X0.01981*%
%ADD50R,0.06706X0.06706*%
%ADD51R,0.03556X0.04343*%
%ADD52R,0.03950X0.04343*%
%ADD53R,0.05131X0.03359*%
%ADD54C,0.07800*%
%ADD55R,0.07800X0.07800*%
%ADD56R,0.06706X0.06706*%
%ADD57C,0.06706*%
%ADD58C,0.08083*%
%ADD59R,0.08083X0.08083*%
%ADD60C,0.06312*%
G04:AMPARAMS|DCode=61|XSize=63.12mil|YSize=63.12mil|CornerRadius=0mil|HoleSize=0mil|Usage=FLASHONLY|Rotation=0.000|XOffset=0mil|YOffset=0mil|HoleType=Round|Shape=Octagon|*
%AMOCTAGOND61*
4,1,8,0.03156,-0.01578,0.03156,0.01578,0.01578,0.03156,-0.01578,0.03156,-0.03156,0.01578,-0.03156,-0.01578,-0.01578,-0.03156,0.01578,-0.03156,0.03156,-0.01578,0.0*
%
%ADD61OCTAGOND61*%

%ADD62C,0.05800*%
%ADD63O,0.07296X0.02965*%
%ADD64O,0.02965X0.07296*%
%ADD65O,0.02375X0.07887*%
%ADD66R,0.02375X0.07887*%
%ADD67C,0.00500*%
%ADD68C,0.00400*%
%ADD69C,0.00843*%
%ADD70C,0.00803*%
%ADD71C,0.00925*%
%ADD72C,0.00394*%
%ADD73C,0.00197*%
%ADD74C,0.00667*%
D67*
X106000Y231921D02*
X110000D01*
X108000Y229921D02*
Y233921D01*
X106000Y222079D02*
X110000D01*
X108000Y220079D02*
Y224079D01*
X110228Y166500D02*
X113772D01*
X112000Y164728D02*
Y168272D01*
X110228Y176500D02*
X113772D01*
X112000Y174728D02*
Y178272D01*
X110228Y186500D02*
X113772D01*
X112000Y184728D02*
Y188272D01*
X110228Y196500D02*
X113772D01*
X112000Y194728D02*
Y198272D01*
X266228Y212000D02*
X269772D01*
X268000Y210228D02*
Y213772D01*
X266228Y202000D02*
X269772D01*
X268000Y200228D02*
Y203772D01*
X266228Y192000D02*
X269772D01*
X268000Y190228D02*
Y193772D01*
X266228Y182000D02*
X269772D01*
X268000Y180228D02*
Y183772D01*
X266228Y172000D02*
X269772D01*
X268000Y170228D02*
Y173772D01*
X266228Y162000D02*
X269772D01*
X268000Y160228D02*
Y163772D01*
X266835Y240000D02*
X271165D01*
X269000Y237835D02*
Y242165D01*
X286835Y240000D02*
X291165D01*
X289000Y237835D02*
Y242165D01*
X288728Y212000D02*
X292272D01*
X290500Y210228D02*
Y213772D01*
X288728Y202000D02*
X292272D01*
X290500Y200228D02*
Y203772D01*
X288728Y192000D02*
X292272D01*
X290500Y190228D02*
Y193772D01*
X288728Y182000D02*
X292272D01*
X290500Y180228D02*
Y183772D01*
X288728Y172000D02*
X292272D01*
X290500Y170228D02*
Y173772D01*
X288728Y162000D02*
X292272D01*
X290500Y160228D02*
Y163772D01*
X268032Y142000D02*
X271181D01*
X269606Y140425D02*
Y143575D01*
X248819Y142000D02*
X251969D01*
X250394Y140425D02*
Y143575D01*
X196600Y185000D02*
X199400D01*
X198000Y183600D02*
Y186400D01*
X229600Y211500D02*
X232400D01*
X231000Y210100D02*
Y212900D01*
X235100Y189500D02*
X237900D01*
X236500Y188100D02*
Y190900D01*
X229600Y227500D02*
X232400D01*
X231000Y226100D02*
Y228900D01*
X229600Y234500D02*
X232400D01*
X231000Y233100D02*
Y235900D01*
X229600Y220000D02*
X232400D01*
X231000Y218600D02*
Y221400D01*
X243100Y202000D02*
X245900D01*
X244500Y200600D02*
Y203400D01*
X235100Y202000D02*
X237900D01*
X236500Y200600D02*
Y203400D01*
X209600Y199000D02*
X212400D01*
X211000Y197600D02*
Y200400D01*
X199100Y196000D02*
X201900D01*
X200500Y194600D02*
Y197400D01*
X243100Y180500D02*
X245900D01*
X244500Y179100D02*
Y181900D01*
X243100Y189500D02*
X245900D01*
X244500Y188100D02*
Y190900D01*
X209100Y180000D02*
X211900D01*
X210500Y178600D02*
Y181400D01*
X204600Y189500D02*
X207400D01*
X206000Y188100D02*
Y190900D01*
M02*
