M48
;Layer_Color=9474304
;FILE_FORMAT=2:5
INCH
;TYPE=PLATED
T1F00S00C0.02800
T2F00S00C0.03150
T3F00S00C0.03543
T4F00S00C0.04000
T5F00S00C0.04331
;TYPE=NON_PLATED
%
T01
X0198000Y0185000
X0206000Y0189500
X0200500Y0196000
X0211000Y0199000
X0210500Y0180000
X0244500Y0180500
Y0189500
X0236500
Y0202000
X0244500
X0231000Y0211500
Y0220000
Y0227500
Y0234500
T02
X0250394Y0142000
X0269606
T03
X0268000Y0162000
Y0172000
Y0182000
Y0192000
Y0202000
Y0212000
X0290500
Y0202000
Y0192000
Y0182000
Y0172000
Y0162000
X0112000Y0166500
Y0176500
Y0186500
Y0196500
T04
X0108000Y0222079
Y0231921
T05
X0269000Y0240000
X0289000
M30
