%FSLAX25Y25*%
%MOIN*%
G70*
G01*
G75*
G04 Layer_Color=32896*
%ADD10R,0.04331X0.02559*%
%ADD11R,0.03543X0.03150*%
%ADD12R,0.03150X0.03543*%
%ADD13R,0.02756X0.03543*%
%ADD14R,0.05906X0.05906*%
%ADD15O,0.07087X0.01181*%
%ADD16O,0.01181X0.07087*%
%ADD17C,0.01000*%
G04:AMPARAMS|DCode=18|XSize=55.12mil|YSize=55.12mil|CornerRadius=0mil|HoleSize=0mil|Usage=FLASHONLY|Rotation=0.000|XOffset=0mil|YOffset=0mil|HoleType=Round|Shape=Octagon|*
%AMOCTAGOND18*
4,1,8,0.02756,-0.01378,0.02756,0.01378,0.01378,0.02756,-0.01378,0.02756,-0.02756,0.01378,-0.02756,-0.01378,-0.01378,-0.02756,0.01378,-0.02756,0.02756,-0.01378,0.0*
%
%ADD18OCTAGOND18*%

%ADD19C,0.05512*%
%ADD20R,0.05906X0.05906*%
%ADD21C,0.05906*%
%ADD22R,0.07284X0.07284*%
%ADD23C,0.07284*%
%ADD24R,0.07000X0.07000*%
%ADD25C,0.07000*%
%ADD26C,0.02677*%
%ADD27C,0.02402*%
%ADD28C,0.02441*%
%ADD29C,0.02559*%
%ADD30C,0.05000*%
%ADD31C,0.02480*%
%ADD32C,0.02713*%
%ADD33C,0.02953*%
%ADD34C,0.02500*%
%ADD35C,0.04000*%
%ADD36C,0.07150*%
G04:AMPARAMS|DCode=37|XSize=95.433mil|YSize=95.433mil|CornerRadius=0mil|HoleSize=0mil|Usage=FLASHONLY|Rotation=0.000|XOffset=0mil|YOffset=0mil|HoleType=Round|Shape=Relief|Width=10mil|Gap=10mil|Entries=4|*
%AMTHD37*
7,0,0,0.09543,0.07543,0.01000,45*
%
%ADD37THD37*%
%ADD38C,0.07543*%
%ADD39C,0.08331*%
G04:AMPARAMS|DCode=40|XSize=103.307mil|YSize=103.307mil|CornerRadius=0mil|HoleSize=0mil|Usage=FLASHONLY|Rotation=0.000|XOffset=0mil|YOffset=0mil|HoleType=Round|Shape=Relief|Width=10mil|Gap=10mil|Entries=4|*
%AMTHD40*
7,0,0,0.10331,0.08331,0.01000,45*
%
%ADD40THD40*%
%ADD41C,0.08000*%
G04:AMPARAMS|DCode=42|XSize=100mil|YSize=100mil|CornerRadius=0mil|HoleSize=0mil|Usage=FLASHONLY|Rotation=0.000|XOffset=0mil|YOffset=0mil|HoleType=Round|Shape=Relief|Width=10mil|Gap=10mil|Entries=4|*
%AMTHD42*
7,0,0,0.10000,0.08000,0.01000,45*
%
%ADD42THD42*%
G04:AMPARAMS|DCode=43|XSize=73.819mil|YSize=73.819mil|CornerRadius=0mil|HoleSize=0mil|Usage=FLASHONLY|Rotation=0.000|XOffset=0mil|YOffset=0mil|HoleType=Round|Shape=Relief|Width=10mil|Gap=10mil|Entries=4|*
%AMTHD43*
7,0,0,0.07382,0.05382,0.01000,45*
%
%ADD43THD43*%
%ADD44C,0.05382*%
%ADD45C,0.05378*%
%ADD46C,0.05221*%
G04:AMPARAMS|DCode=47|XSize=74.961mil|YSize=74.961mil|CornerRadius=0mil|HoleSize=0mil|Usage=FLASHONLY|Rotation=0.000|XOffset=0mil|YOffset=0mil|HoleType=Round|Shape=Relief|Width=10mil|Gap=10mil|Entries=4|*
%AMTHD47*
7,0,0,0.07496,0.05496,0.01000,45*
%
%ADD47THD47*%
G04:AMPARAMS|DCode=48|XSize=73.779mil|YSize=73.779mil|CornerRadius=0mil|HoleSize=0mil|Usage=FLASHONLY|Rotation=0.000|XOffset=0mil|YOffset=0mil|HoleType=Round|Shape=Relief|Width=10mil|Gap=10mil|Entries=4|*
%AMTHD48*
7,0,0,0.07378,0.05378,0.01000,45*
%
%ADD48THD48*%
G04:AMPARAMS|DCode=49|XSize=75mil|YSize=75mil|CornerRadius=0mil|HoleSize=0mil|Usage=FLASHONLY|Rotation=0.000|XOffset=0mil|YOffset=0mil|HoleType=Round|Shape=Relief|Width=10mil|Gap=10mil|Entries=4|*
%AMTHD49*
7,0,0,0.07500,0.05500,0.01000,45*
%
%ADD49THD49*%
G04:AMPARAMS|DCode=50|XSize=88mil|YSize=88mil|CornerRadius=0mil|HoleSize=0mil|Usage=FLASHONLY|Rotation=0.000|XOffset=0mil|YOffset=0mil|HoleType=Round|Shape=Relief|Width=10mil|Gap=10mil|Entries=4|*
%AMTHD50*
7,0,0,0.08800,0.06800,0.01000,45*
%
%ADD50THD50*%
%ADD51C,0.06800*%
G04:AMPARAMS|DCode=52|XSize=72.205mil|YSize=72.205mil|CornerRadius=0mil|HoleSize=0mil|Usage=FLASHONLY|Rotation=0.000|XOffset=0mil|YOffset=0mil|HoleType=Round|Shape=Relief|Width=10mil|Gap=10mil|Entries=4|*
%AMTHD52*
7,0,0,0.07220,0.05221,0.01000,45*
%
%ADD52THD52*%
%ADD53C,0.05496*%
%ADD54C,0.05500*%
%ADD55R,0.01575X0.07087*%
%ADD56O,0.01575X0.07087*%
%ADD57O,0.02165X0.06496*%
%ADD58O,0.06496X0.02165*%
%ADD59C,0.00984*%
%ADD60C,0.02362*%
%ADD61C,0.00787*%
%ADD62C,0.00870*%
%ADD63C,0.00961*%
%ADD64C,0.00882*%
%ADD65R,0.05131X0.03359*%
%ADD66R,0.04343X0.03950*%
%ADD67R,0.03950X0.04343*%
%ADD68R,0.03556X0.04343*%
%ADD69R,0.06706X0.06706*%
%ADD70O,0.07887X0.01981*%
%ADD71O,0.01981X0.07887*%
G04:AMPARAMS|DCode=72|XSize=63.12mil|YSize=63.12mil|CornerRadius=0mil|HoleSize=0mil|Usage=FLASHONLY|Rotation=0.000|XOffset=0mil|YOffset=0mil|HoleType=Round|Shape=Octagon|*
%AMOCTAGOND72*
4,1,8,0.03156,-0.01578,0.03156,0.01578,0.01578,0.03156,-0.01578,0.03156,-0.03156,0.01578,-0.03156,-0.01578,-0.01578,-0.03156,0.01578,-0.03156,0.03156,-0.01578,0.0*
%
%ADD72OCTAGOND72*%

%ADD73C,0.06312*%
%ADD74R,0.06706X0.06706*%
%ADD75C,0.06706*%
%ADD76R,0.08083X0.08083*%
%ADD77C,0.08083*%
%ADD78R,0.07800X0.07800*%
%ADD79C,0.07800*%
%ADD80C,0.03477*%
%ADD81C,0.03202*%
%ADD82C,0.03241*%
%ADD83C,0.03359*%
%ADD84C,0.05800*%
%ADD85C,0.03280*%
%ADD86C,0.03513*%
%ADD87C,0.03753*%
%ADD88C,0.03300*%
%ADD89R,0.02375X0.07887*%
%ADD90O,0.02375X0.07887*%
%ADD91O,0.02965X0.07296*%
%ADD92O,0.07296X0.02965*%
%ADD93C,0.00500*%
%ADD94C,0.00400*%
%ADD95C,0.00803*%
%ADD96C,0.00925*%
%ADD97C,0.00843*%
D17*
X282000Y216000D02*
X276002D01*
Y213001D01*
X277002Y212001D01*
X279001D01*
X280001Y213001D01*
Y216000D01*
Y214001D02*
X282000Y212001D01*
X276002Y206003D02*
Y210002D01*
X279001D01*
X278001Y208003D01*
Y207003D01*
X279001Y206003D01*
X281000D01*
X282000Y207003D01*
Y209002D01*
X281000Y210002D01*
X260400Y246900D02*
Y252898D01*
X257401D01*
X256401Y251898D01*
Y249899D01*
X257401Y248899D01*
X260400D01*
X258401D02*
X256401Y246900D01*
X254402Y251898D02*
X253402Y252898D01*
X251403D01*
X250403Y251898D01*
Y250899D01*
X251403Y249899D01*
X252403D01*
X251403D01*
X250403Y248899D01*
Y247900D01*
X251403Y246900D01*
X253402D01*
X254402Y247900D01*
X225900Y213400D02*
Y219398D01*
X223901Y217399D01*
X221901Y219398D01*
Y213400D01*
X215903Y218398D02*
X216903Y219398D01*
X218902D01*
X219902Y218398D01*
Y214400D01*
X218902Y213400D01*
X216903D01*
X215903Y214400D01*
X213904Y219398D02*
Y214400D01*
X212904Y213400D01*
X210905D01*
X209905Y214400D01*
Y219398D01*
X136501Y251498D02*
X138501D01*
X137501D01*
Y246500D01*
X138501Y245500D01*
X139500D01*
X140500Y246500D01*
X130503Y250498D02*
X131503Y251498D01*
X133502D01*
X134502Y250498D01*
Y249499D01*
X133502Y248499D01*
X131503D01*
X130503Y247499D01*
Y246500D01*
X131503Y245500D01*
X133502D01*
X134502Y246500D01*
X128504Y251498D02*
X124505D01*
X126505D01*
Y245500D01*
X122506Y244500D02*
X118507D01*
X116508Y245500D02*
Y251498D01*
X113509D01*
X112509Y250498D01*
Y248499D01*
X113509Y247499D01*
X116508D01*
X110510Y251498D02*
Y245500D01*
Y248499D01*
X106511D01*
Y251498D01*
Y245500D01*
X279001Y129998D02*
X280001Y130998D01*
X282000D01*
X283000Y129998D01*
Y126000D01*
X282000Y125000D01*
X280001D01*
X279001Y126000D01*
X273003Y130998D02*
X277002D01*
Y127999D01*
X275003Y128999D01*
X274003D01*
X273003Y127999D01*
Y126000D01*
X274003Y125000D01*
X276002D01*
X277002Y126000D01*
X241501Y129498D02*
X242501Y130498D01*
X244500D01*
X245500Y129498D01*
Y125500D01*
X244500Y124500D01*
X242501D01*
X241501Y125500D01*
X236503Y124500D02*
Y130498D01*
X239502Y127499D01*
X235503D01*
X217501Y226998D02*
X218501Y227998D01*
X220500D01*
X221500Y226998D01*
Y223000D01*
X220500Y222000D01*
X218501D01*
X217501Y223000D01*
X215502Y226998D02*
X214502Y227998D01*
X212503D01*
X211503Y226998D01*
Y225999D01*
X212503Y224999D01*
X213503D01*
X212503D01*
X211503Y223999D01*
Y223000D01*
X212503Y222000D01*
X214502D01*
X215502Y223000D01*
X194401Y225398D02*
X195401Y226398D01*
X197400D01*
X198400Y225398D01*
Y221400D01*
X197400Y220400D01*
X195401D01*
X194401Y221400D01*
X188403Y220400D02*
X192402D01*
X188403Y224399D01*
Y225398D01*
X189403Y226398D01*
X191402D01*
X192402Y225398D01*
X195501Y156498D02*
X196501Y157498D01*
X198500D01*
X199500Y156498D01*
Y152500D01*
X198500Y151500D01*
X196501D01*
X195501Y152500D01*
X193502Y151500D02*
X191503D01*
X192502D01*
Y157498D01*
X193502Y156498D01*
X134000Y204998D02*
Y200000D01*
X133000Y199000D01*
X131001D01*
X130001Y200000D01*
Y204998D01*
X128002Y203998D02*
X127002Y204998D01*
X125003D01*
X124003Y203998D01*
Y202999D01*
X125003Y201999D01*
X126003D01*
X125003D01*
X124003Y200999D01*
Y200000D01*
X125003Y199000D01*
X127002D01*
X128002Y200000D01*
D59*
X117492Y188000D02*
G03*
X117492Y188000I-492J0D01*
G01*
X220764Y172965D02*
G03*
X220764Y172965I-492J0D01*
G01*
D60*
X215181Y184500D02*
G03*
X215181Y184500I-1181J0D01*
G01*
D61*
X117500Y182032D02*
Y184000D01*
X128500Y182032D02*
Y184000D01*
X194386Y177886D02*
X217614D01*
X194386Y201114D02*
X217614D01*
Y177886D02*
Y201114D01*
X194386Y177886D02*
Y201114D01*
D93*
X112000Y212079D02*
Y216079D01*
Y238079D02*
Y242079D01*
X116000Y216079D02*
Y238079D01*
X104000Y212079D02*
X112000D01*
X104000D02*
Y216079D01*
X112000D01*
X104000Y238079D02*
Y242079D01*
Y238079D02*
X112000D01*
X114000Y216079D02*
X132000D01*
Y212079D02*
Y216079D01*
Y238079D02*
Y242079D01*
X114000Y238079D02*
X132000D01*
X134500Y212079D02*
Y242079D01*
X104000D02*
X112000D01*
X114000Y216079D02*
Y238079D01*
D94*
X116000Y223079D02*
X130500D01*
X131500Y222079D01*
X130500Y221079D02*
X131500Y222079D01*
X116000Y221079D02*
X130500D01*
X116000Y233079D02*
X130500D01*
X131500Y232079D01*
X130500Y231079D02*
X131500Y232079D01*
X116000Y231079D02*
X130500D01*
D95*
X281500Y176500D02*
X277013D01*
Y174257D01*
X277761Y173509D01*
X279257D01*
X280004Y174257D01*
Y176500D01*
Y175004D02*
X281500Y173509D01*
Y172013D02*
Y170518D01*
Y171265D01*
X277013D01*
X277761Y172013D01*
X281500Y168274D02*
Y166779D01*
Y167526D01*
X277013D01*
X277761Y168274D01*
X260500Y233500D02*
Y237924D01*
X258288D01*
X257551Y237187D01*
Y235712D01*
X258288Y234975D01*
X260500D01*
X259025D02*
X257551Y233500D01*
X253127D02*
X256076D01*
X253127Y236449D01*
Y237187D01*
X253864Y237924D01*
X255339D01*
X256076Y237187D01*
D96*
X284500Y229000D02*
Y234211D01*
X281894D01*
X281026Y233342D01*
Y231606D01*
X281894Y230737D01*
X284500D01*
X282763D02*
X281026Y229000D01*
X276684D02*
Y234211D01*
X279289Y231606D01*
X275815D01*
D97*
X261500Y221500D02*
Y225924D01*
X259288D01*
X258551Y225186D01*
Y223712D01*
X259288Y222975D01*
X261500D01*
X260025D02*
X258551Y221500D01*
X257076D02*
X255602D01*
X256339D01*
Y225924D01*
X257076Y225186D01*
M02*
